<?xml version="1.0" encoding="utf-8"?>
<!-- Generator: Adobe Illustrator 15.0.0, SVG Export Plug-In . SVG Version: 6.00 Build 0)  -->
<!DOCTYPE svg PUBLIC "-//W3C//DTD SVG 1.1//EN" "http://www.w3.org/Graphics/SVG/1.1/DTD/svg11.dtd">
<svg version="1.1" id="Layer_1" xmlns="http://www.w3.org/2000/svg" xmlns:xlink="http://www.w3.org/1999/xlink" x="0px" y="0px"
	 width="434.131px" height="434.132px" viewBox="203.88 80.574 434.131 434.132"
	 enable-background="new 203.88 80.574 434.131 434.132" xml:space="preserve">
<title>casco urbano</title>
<path fill="#FFFFFF" d="M297.194,418.442h-38.813c-3.779,0-6.842,3.063-6.842,6.843l0,0v14.274
	c0.063,17.304,14.076,31.314,31.38,31.38h14.273c3.779,0,6.843-3.063,6.843-6.842l0,0v-39.402
	C303.729,421.148,300.753,418.429,297.194,418.442z M290.351,457.256h-7.313c-9.773,0-17.696-7.924-17.696-17.695v-7.314h25.01
	L290.351,457.256L290.351,457.256z"/>
<path fill="#FFFFFF" d="M439.938,338.46h-16.516c-3.779,0-6.844,3.063-6.844,6.842v38.813c0,3.778,3.063,6.842,6.844,6.842l0,0
	h28.194c3.778,0.036,6.87-2.997,6.906-6.776c0.007-0.701-0.095-1.399-0.301-2.07l-11.797-38.813
	C445.551,340.439,442.924,338.481,439.938,338.46z M430.029,377.508v-25.363h4.602l7.786,25.363H430.029z"/>
<path fill="#FFFFFF" d="M558.497,348.013l30.438,68.896c1.078,2.496,3.533,4.117,6.253,4.129h1.415
	c3.175-0.671,5.44-3.479,5.427-6.725v-69.013c0-3.779-3.063-6.843-6.842-6.843l0,0H564.75c-3.778-0.014-6.854,3.039-6.865,6.818
	c-0.003,0.984,0.206,1.958,0.612,2.854V348.013L558.497,348.013z M588.463,352.143v29.61l-13.096-29.61H588.463z"/>
<path fill="#FFFFFF" d="M297.194,338.46h-38.813c-3.779,0-6.842,3.063-6.842,6.842v38.813c0,3.778,3.063,6.842,6.842,6.842l0,0
	h38.813c3.779,0,6.843-3.063,6.843-6.842l0,0v-38.813C304.035,341.521,300.973,338.46,297.194,338.46z M290.351,377.508h-25.48
	v-25.363h25.01L290.351,377.508z"/>
<path fill="#FFFFFF" d="M488.07,171.529h92.019c3.602,0.009,6.594-2.776,6.842-6.37v-35.392c0-3.778-3.063-6.843-6.842-6.843l0,0
	H488.07c-3.778,0-6.842,3.063-6.842,6.843v35.392C481.476,168.753,484.468,171.538,488.07,171.529z M494.911,137.082h78.216v20.764
	h-78.216V137.082z"/>
<path fill="#FFFFFF" d="M416.578,426.7v35.393c0,3.778,3.063,6.843,6.844,6.843l0,0h59.929c3.749-0.477,6.402-3.901,5.926-7.65
	c-0.052-0.405-0.14-0.808-0.263-1.197l-17.814-35.393c-1.164-2.32-3.54-3.782-6.135-3.774h-41.644
	C420.022,420.88,417.107,423.342,416.578,426.7z M430.264,433.544h30.908l10.972,22.061h-42.115L430.264,433.544z"/>
<path fill="#FFFFFF" d="M297.194,123.279h-34.564c-3.779,0-6.843,3.063-6.843,6.843v99.213c0,3.779,3.063,6.844,6.843,6.844h34.564
	c3.779,0,6.843-3.063,6.843-6.844v-99.566C303.847,126.128,300.838,123.274,297.194,123.279z M290.351,222.493H269.47v-85.411
	h20.881V222.493z"/>
<path fill="#FFFFFF" d="M447.016,231.577h135.077c3.777,0,6.842-3.063,6.842-6.843l0,0v-32.796c0-3.778-3.063-6.842-6.842-6.842l0,0
	l0,0H467.66v-40.229c0-3.778-3.063-6.842-6.843-6.842h-34.801c-3.779,0-6.843,3.063-6.843,6.842v58.985
	C419.24,219.183,431.686,231.577,447.016,231.577z M432.978,151.711h20.645v40.464c0,3.778,3.063,6.843,6.844,6.843l0,0h114.432
	v18.993H447.016c-7.753,0-14.038-6.285-14.038-14.038l0,0V151.711z"/>
<path fill="#FFFFFF" d="M570.06,80.574H271.83c-37.528,0-67.95,30.423-67.95,67.951v298.23c0,37.527,30.422,67.95,67.95,67.95
	H570.06c37.528,0,67.951-30.423,67.951-67.95l0,0v-298.23C638.011,110.997,607.588,80.574,570.06,80.574z M399.119,101.219h170.94
	c21.548-0.037,40.386,14.526,45.771,35.392v113.016H411.271c-6.515,0-11.797-5.28-11.797-11.797L399.119,101.219z M224.524,148.407
	c0-26.062,21.127-47.188,47.188-47.188h53.677v136.847c0,6.515-5.282,11.797-11.798,11.797h-89.067V148.407z M325.506,493.944
	h-53.677c-26.062,0-47.188-21.127-47.188-47.188v-125.05h88.832c6.515,0,11.797,5.281,11.797,11.798L325.506,493.944z
	 M399.119,493.944V333.857c0-6.516,5.281-11.797,11.797-11.797h34.329c5.134-0.36,9.906,2.646,11.798,7.433l69.014,165.158
	L399.119,493.944z M617.365,446.757c-0.022,5.056-0.859,10.073-2.477,14.863c-1.873,5.764-8.063,8.917-13.824,7.046
	c-2.919-0.948-5.307-3.075-6.585-5.865l-63.232-141.565h86.118V446.757z M617.365,301.061h-91.19
	c-9.577,0.042-17.309,7.84-17.267,17.417c0.011,2.371,0.507,4.714,1.458,6.885l74.321,165.985
	c-4.708,1.632-9.646,2.508-14.628,2.596h-22.061l-72.08-172.71c-5.097-12.168-17.01-20.079-30.201-20.055H411.27
	c-18.111,0-32.796,14.684-32.796,32.796l0,0v160.086h-32.323V333.857c0-18.112-14.684-32.796-32.796-32.796l0,0h-88.832v-29.729
	h88.832c18.112,0,32.796-14.684,32.796-32.796l0,0V101.219h32.441v136.847c-0.261,18.11,14.21,33.004,32.319,33.265
	c0.119,0.001,0.238,0.002,0.357,0.003h206.095L617.365,301.061L617.365,301.061z"/>
</svg>
