<?xml version="1.0" encoding="utf-8"?>
<!-- Generator: Adobe Illustrator 15.0.0, SVG Export Plug-In . SVG Version: 6.00 Build 0)  -->
<!DOCTYPE svg PUBLIC "-//W3C//DTD SVG 1.1//EN" "http://www.w3.org/Graphics/SVG/1.1/DTD/svg11.dtd">
<svg version="1.1" id="Layer_1" xmlns="http://www.w3.org/2000/svg" xmlns:xlink="http://www.w3.org/1999/xlink" x="0px" y="0px"
	 width="434.13px" height="434.13px" viewBox="203.88 80.575 434.13 434.13" enable-background="new 203.88 80.575 434.13 434.13"
	 xml:space="preserve">
<title>construccion</title>
<path fill="#FFFFFF" d="M638.01,115.886c0-4.999-4.051-9.05-9.049-9.05l0,0H253.818c-4.998-0.129-9.153,3.816-9.282,8.811
	c-0.002,0.08-0.003,0.16-0.003,0.239V329.08l-31.379,30.557c-11.942,11.779-12.41,30.902-1.058,43.25l0,0
	c8.29,8.821,20.969,11.991,32.437,8.108v66.402c0,5,4.052,9.05,9.05,9.05l0,0h375.379c4.998,0,9.049-4.05,9.049-9.05l0,0v-59.938
	l0,0v-60.29l0,0v-60.411l0,0v-60.291l0,0v-60.292l0,0V115.886z M543.989,124.936c10.588,13.888,15.503,31.279,13.751,48.656
	c-3.407,21.742-19.392,41.251-48.538,58.763c-39.488,23.505-55.12,67.813-70.516,110.944c-18.686,53.121-35.258,98.958-91.2,98.958
	s-77.567-33.613-83.327-45.365l41.135-40.078c7.004-6.828,7.264-18.003,0.587-25.15l0,0l-2.586-3.291l15.513-15.045
	c20.698,18.794,52.437,18.281,72.514-1.176c12.05-14.369,20.866-31.164,25.855-49.242c11.753-39.958,1.529-51.242-1.881-55.002l0,0
	l0,0c-21.389-21.979-87.204,3.173-105.772,20.684c-20.07,19.324-21.515,50.97-3.292,72.044l-15.629,15.16l-2.938-2.938
	c-6.696-6.905-17.659-7.269-24.799-0.821V124.934h281.123V124.936z M526.596,245.518v41.956h-44.66
	c8.508-16.373,21.199-30.199,36.785-40.076l2.938-1.88L526.596,245.518L526.596,245.518z M449.615,366.1h76.979v42.544h-95.312
	C438.5,394.966,444.63,380.741,449.615,366.1z M345.018,275.487L345.018,275.487c-3.522-3.465-9.171-3.465-12.693,0l-13.046,12.692
	c-11.167-14.122-9.901-34.388,2.938-47.009c16.336-15.632,69.693-31.379,79.683-20.568l0,0c9.403,10.108-7.404,63.582-23.505,79.095
	c-13.022,12.381-33.271,12.986-47.011,1.41l13.046-12.575c3.79-3.259,4.218-8.973,0.959-12.763
	c-0.083-0.096-0.167-0.189-0.254-0.283H345.018L345.018,275.487z M225.729,390.78L225.729,390.78c-4.928-5.026-4.928-13.07,0-18.099
	l48.773-47.009l17.981,18.569l-47.951,46.774c-4.964,5.132-13.148,5.267-18.28,0.302
	C226.073,391.144,225.898,390.965,225.729,390.78z M432.574,468.466H262.866V426.39l0,0c21.972,22.889,52.821,35.073,84.501,33.379
	c27.84,1.211,54.518-11.251,71.458-33.379h13.75V468.466L432.574,468.466z M620.616,468.466H450.439V426.39h169.59L620.616,468.466z
	 M620.616,408.175h-76.392v-42.073h75.804L620.616,408.175z M620.616,347.883H456.08c5.053-14.22,10.108-28.559,16.1-41.956h147.849
	L620.616,347.883z M620.616,287.593h-76.392v-42.074h75.804L620.616,287.593z M620.616,227.301h-74.042
	c12.742-11.196,22.104-25.727,27.032-41.957h46.422L620.616,227.301z M620.616,167.01h-44.189
	c0.081-14.684-3.643-29.141-10.813-41.956h54.415L620.616,167.01z"/>
</svg>
