<?xml version="1.0" encoding="utf-8"?>
<!-- Generator: Adobe Illustrator 15.0.0, SVG Export Plug-In . SVG Version: 6.00 Build 0)  -->
<!DOCTYPE svg PUBLIC "-//W3C//DTD SVG 1.1//EN" "http://www.w3.org/Graphics/SVG/1.1/DTD/svg11.dtd">
<svg version="1.1" id="Layer_1" xmlns="http://www.w3.org/2000/svg" xmlns:xlink="http://www.w3.org/1999/xlink" x="0px" y="0px"
	 width="434.131px" height="434.131px" viewBox="0 0 434.131 434.131" enable-background="new 0 0 434.131 434.131"
	 xml:space="preserve">
<title>energia solar casa</title>
<g>
	<path fill="#FFFFFF" d="M216.596,51.274L216.596,51.274c3.034,0,5.497-2.461,5.497-5.497V5.497c0-3.003-2.408-5.45-5.411-5.497
		c-3.036,0-5.496,2.46-5.496,5.497v40.281C211.185,48.781,213.595,51.229,216.596,51.274z"/>
	<path fill="#FFFFFF" d="M268.388,72.66c1.439,0.012,2.829-0.544,3.863-1.545l21.988-21.987l6.442-6.528
		c2.361-1.906,2.731-5.368,0.823-7.728c-1.905-2.362-5.367-2.73-7.729-0.825c-0.303,0.245-0.58,0.521-0.825,0.825
		c0,0-2.49,2.492-6.526,6.527l-21.9,21.987c-2.11,2.048-2.162,5.418-0.113,7.529c0.036,0.04,0.074,0.077,0.113,0.115
		C265.54,72.07,266.932,72.658,268.388,72.66z"/>
	<path fill="#FFFFFF" d="M132.769,42.857l26.883,26.882c1.045,0.987,2.427,1.54,3.865,1.547c1.462,0.028,2.867-0.564,3.865-1.633
		c2.11-2.047,2.163-5.418,0.114-7.529c-0.038-0.038-0.075-0.076-0.114-0.114l-19.669-19.67l-5.582-5.581
		c-2.146-2.146-5.839-5.753-9.705-1.889c-2.136,2.091-2.17,5.517-0.077,7.651c0.024,0.026,0.051,0.053,0.077,0.077L132.769,42.857z"
		/>
	<path fill="#FFFFFF" d="M243.136,55.826c0.566,0.264,1.18,0.411,1.804,0.431c1.854-0.061,3.501-1.204,4.208-2.921l9.706-22.76
		c1.026-2.293,0.001-4.987-2.295-6.014c-0.063-0.03-0.132-0.056-0.196-0.083c-2.357-1.002-5.083,0.096-6.084,2.454
		c-0.005,0.012-0.008,0.024-0.017,0.037l-9.706,22.76c-1.012,2.302,0.033,4.988,2.334,6
		C242.972,55.762,243.055,55.796,243.136,55.826z"/>
	<path fill="#FFFFFF" d="M124.009,85.201h0.602l3.263,1.372l17.692,7.473c0.595,0.122,1.207,0.122,1.805,0
		c1.859-0.035,3.531-1.138,4.293-2.833c1.015-2.397-0.1-5.161-2.49-6.185l-17.178-7.385l-3.351-1.461
		c-2.356-1.225-5.261-0.304-6.484,2.051c-0.045,0.088-0.089,0.177-0.13,0.268c-1.352,2.23-0.641,5.134,1.59,6.488
		C123.748,85.066,123.875,85.136,124.009,85.201z"/>
	<path fill="#FFFFFF" d="M280.069,93.102c0.721,1.746,2.407,2.893,4.294,2.921c0.595,0.122,1.208,0.122,1.804,0l23.103-9.792l0,0
		c2.38-0.99,3.523-3.701,2.575-6.097c-1.024-2.39-3.765-3.531-6.181-2.579l-23.192,9.45
		C280.161,88.059,279.101,90.753,280.069,93.102z"/>
	<path fill="#FFFFFF" d="M175.455,30.575l0.945,2.146c1.029,2.663,3.177,7.987,7.558,18.552c0.701,1.758,2.401,2.914,4.293,2.921
		c0.595,0.122,1.209,0.122,1.804,0c2.378-0.992,3.524-3.704,2.577-6.099c-4.381-10.566-6.527-15.888-7.558-18.55
		c-1.032-2.663-2.836-6.957-7.215-5.241c-2.383,0.941-3.552,3.635-2.611,6.019c0.012,0.026,0.022,0.053,0.034,0.08
		C175.334,30.465,175.393,30.524,175.455,30.575z"/>
	<path fill="#FFFFFF" d="M181.811,275.959h-51.962c-4.033,0-7.301,3.269-7.301,7.3v50.332c0,4.033,3.27,7.3,7.301,7.3h51.962
		c3.999-0.048,7.215-3.301,7.215-7.3v-50.332C189.027,279.261,185.81,276.005,181.811,275.959z M174.511,326.289h-37.018v-35.815
		h37.362L174.511,326.289z"/>
	<path fill="#FFFFFF" d="M406.84,245.297l-53.768-127.459c-1.116-2.711-3.767-4.479-6.698-4.467h-74.98
		c-3.392-30.168-30.593-51.878-60.761-48.489c-25.5,2.864-45.625,22.99-48.49,48.489H87.161c-2.933-0.012-5.581,1.754-6.698,4.467
		L26.696,245.297c-0.931,2.252-0.708,4.815,0.602,6.872c1.367,2.031,3.65,3.251,6.099,3.263h41.998v128.832
		c0,4.033,3.269,7.302,7.301,7.302H350.84c4.032,0,7.301-3.269,7.301-7.302V255.433h41.996c2.449-0.013,4.732-1.231,6.101-3.263
		C407.545,250.113,407.771,247.55,406.84,245.297z M132.769,240.915l6.785-32.465h67.508v32.465H132.769z M75.997,165.764h57.458
		l-5.753,28H64.231L75.997,165.764z M148.316,165.764h58.747v28H142.56L148.316,165.764z M207.063,127.886v23.361h-55.742
		l4.811-23.361H207.063z M272.508,127.886l4.811,23.361h-55.742v-23.361H272.508z M221.578,208.108h67.593l6.7,32.466h-74.293
		V208.108L221.578,208.108z M221.578,193.505v-27.741h58.746l5.842,28L221.578,193.505z M295.269,165.764h62.271l11.851,28H300.68
		L295.269,165.764z M351.356,151.247h-59.265l-4.81-23.361h54.196L351.356,151.247z M216.768,79.447
		c19.936,0.068,36.849,14.648,39.854,34.355h-79.705C179.921,94.094,196.835,79.513,216.768,79.447z M91.972,127.886h49.3
		l-4.81,23.361H82.18L91.972,127.886z M58.132,208.108h66.563l-6.783,32.466H44.391L58.132,208.108z M251.381,376.705v-85.889
		h37.361v85.889H251.381z M343.626,376.705h-40.282v-93.447c0-4.031-3.268-7.3-7.299-7.3h-51.962c-4,0.047-7.217,3.301-7.217,7.3
		v93.619H89.911v-121.79h253.714L343.626,376.705L343.626,376.705z M310.729,240.573l-6.699-32.465h71.373l13.741,32.465H310.729z"
		/>
</g>
</svg>
