<?xml version="1.0" encoding="utf-8"?>
<!-- Generator: Adobe Illustrator 15.0.0, SVG Export Plug-In . SVG Version: 6.00 Build 0)  -->
<!DOCTYPE svg PUBLIC "-//W3C//DTD SVG 1.1//EN" "http://www.w3.org/Graphics/SVG/1.1/DTD/svg11.dtd">
<svg version="1.1" id="Layer_1" focusable="false" xmlns="http://www.w3.org/2000/svg" xmlns:xlink="http://www.w3.org/1999/xlink"
	 x="0px" y="0px" width="434.13px" height="434.13px" viewBox="203.88 80.575 434.13 434.13"
	 enable-background="new 203.88 80.575 434.13 434.13" xml:space="preserve">
<path fill="#FFFFFF" d="M409.98,355.118l-89.815,89.815l31.903,30.068c14.651,14.652,4.275,39.703-16.444,39.703H227.091
	c-12.845,0-23.21-10.412-23.21-23.257V382.916c0-20.719,25.004-31.097,39.655-16.445l30.115,31.95l89.816-89.815
	c6.056-6.056,15.873-6.056,21.928,0l24.587,24.587C416.037,339.246,416.037,349.063,409.98,355.118z M431.908,240.163l89.815-89.817
	l-31.9-30.068c-14.653-14.651-4.277-39.703,16.443-39.703h108.531c12.845,0,23.212,10.413,23.212,23.257v108.531
	c0,20.721-25.005,31.098-39.655,16.446l-30.116-31.95l-89.817,89.817c-6.055,6.054-15.871,6.054-21.926,0l-24.588-24.587
	C425.852,256.034,425.852,246.219,431.908,240.163L431.908,240.163z"/>
</svg>
