<?xml version="1.0" encoding="utf-8"?>
<!-- Generator: Adobe Illustrator 15.0.0, SVG Export Plug-In . SVG Version: 6.00 Build 0)  -->
<!DOCTYPE svg PUBLIC "-//W3C//DTD SVG 1.1//EN" "http://www.w3.org/Graphics/SVG/1.1/DTD/svg11.dtd">
<svg version="1.1" id="Layer_1" xmlns="http://www.w3.org/2000/svg" xmlns:xlink="http://www.w3.org/1999/xlink" x="0px" y="0px"
	 width="434.13px" height="434.13px" viewBox="203.88 80.575 434.13 434.13" enable-background="new 203.88 80.575 434.13 434.13"
	 xml:space="preserve">
<title>gas</title>
<path fill="#FFFFFF" d="M571.126,365.869c0.197-24.915-5.905-49.475-17.74-71.4c-17.298-35.26-44.956-65.342-72.393-110.85
	c-17.214-25.711-20.242-58.392-8.043-86.828c2.688-6.329-0.265-13.64-6.595-16.327c-3.296-1.4-7.037-1.313-10.265,0.241
	c-38.189,16.365-66.159,50.12-75.147,90.685c-6.946,31.242-6.946,63.628,0,94.871c3.846,14.97-5.172,30.225-20.144,34.072
	c-0.626,0.16-1.258,0.3-1.894,0.416h-3.415c-12.893,0-25.013-9.696-24.242-29.751c0.395-7.939,1.241-15.848,2.535-23.69
	c2.007-5.902-1.149-12.316-7.053-14.324c-5.902-2.009-12.316,1.148-14.324,7.051l0,0c-13.554,24.088-24.629,49.486-33.057,75.81
	c-2.182,6.23-3.949,12.599-5.29,19.063l-0.661,2.864l0,0c-15.75,81.436,37.498,160.222,118.934,175.973
	c81.437,15.75,160.222-37.497,175.973-118.935c1.418-7.332,2.287-14.758,2.601-22.22l0,0c0,0,0-0.771,0-1.211
	C570.906,370.939,571.126,367.744,571.126,365.869z M539.613,369.506v0.551c0,0,0,0.662,0,0.993l0,0
	c-2.855,65.356-58.15,116.025-123.507,113.169c-65.356-2.854-116.024-58.15-113.17-123.506c0.25-5.703,0.912-11.382,1.979-16.99
	v-0.77v-0.882v-0.662c1.065-5.081,2.465-10.087,4.187-14.985v-0.992c1.102-3.525,2.424-7.491,3.967-11.898l2.092,2.313
	c10.457,10.788,24.865,16.839,39.889,16.749c2.495,0.162,4.999,0.162,7.492,0c14.985-2.063,28.54-9.987,37.684-22.037
	c10.368-13.885,14.698-31.364,12.01-48.483c0-2.864-0.881-5.951-1.321-9.146c-5.081-24.185-4.854-49.185,0.661-73.274
	c3.577-16.291,11.15-31.437,22.038-44.074c0.854,23.056,7.771,45.479,20.054,65.011c12.783,21.267,25.674,39.337,37.023,55.094
	c12.757,16.8,24.144,34.597,34.048,53.221l0.552,1.103c9.329,17.067,14.253,36.193,14.325,55.645
	C539.613,366.752,539.613,368.073,539.613,369.506z"/>
</svg>
