<?xml version="1.0" encoding="utf-8"?>
<!-- Generator: Adobe Illustrator 15.0.0, SVG Export Plug-In . SVG Version: 6.00 Build 0)  -->
<!DOCTYPE svg PUBLIC "-//W3C//DTD SVG 1.1//EN" "http://www.w3.org/Graphics/SVG/1.1/DTD/svg11.dtd">
<svg version="1.1" id="Layer_1" xmlns="http://www.w3.org/2000/svg" xmlns:xlink="http://www.w3.org/1999/xlink" x="0px" y="0px"
	 width="434.13px" height="434.13px" viewBox="203.88 80.575 434.13 434.13" enable-background="new 203.88 80.575 434.13 434.13"
	 xml:space="preserve">
<title>habitat</title>
<circle fill="#FFFFFF" cx="417.503" cy="255.906" r="15.04"/>
<path fill="#FFFFFF" d="M638.126,247.095c0.063-33.571-27.101-60.836-60.671-60.898c-33.571-0.063-60.837,27.101-60.898,60.672
	c-0.059,31.51,23.972,57.841,55.355,60.656v64.077c-2.041-0.201-4.099-0.201-6.141,0c-3.487,0.327-6.891,1.261-10.057,2.759
	c-9.391-20.939-32.8-31.731-54.822-25.275c-0.801,0-1.513,0.624-2.314,0.891V240.687c-0.027-2.325-1.148-4.501-3.025-5.874
	l-75.47-55.178c-2.612-2.05-6.287-2.05-8.899,0l-75.47,55.178c-1.888,1.363-3.012,3.545-3.025,5.874v107.509
	c-20.656-3.799-41.245,6.954-49.928,26.076c-3.167-1.496-6.57-2.43-10.057-2.759c-1.541-0.115-3.088-0.115-4.628,0v-73.155h12.994
	c1.537-0.005,2.97-0.771,3.827-2.047l8.188-12.46l0,0c0.89,0,1.78,0,2.759,0c15.679,0.107,28.477-12.516,28.584-28.194
	c0.108-15.679-12.515-28.478-28.194-28.585c-15.679-0.107-28.478,12.516-28.585,28.195c-0.075,11.018,6.232,21.086,16.18,25.825
	l-5.429,8.188h-29.102l-5.429-8.188c13.959-6.584,19.938-23.236,13.354-37.196c-6.583-13.959-23.236-19.938-37.195-13.354
	c-13.959,6.583-19.938,23.237-13.354,37.195c4.626,9.81,14.512,16.057,25.359,16.024c0.978,0,1.78,0,2.758,0l0,0l8.188,12.461
	c0.857,1.275,2.291,2.042,3.828,2.046h12.548v75.114c-11.497,4.076-19.519,14.537-20.47,26.699
	c-0.267,3.491,0.003,7.003,0.802,10.413h-10.235c-3.785,0-6.853,3.067-6.853,6.853s3.068,6.853,6.853,6.853H612.14
	c3.784,0,6.853-3.067,6.853-6.853s-3.068-6.853-6.853-6.853h-12.46c0.301-3.584,0.301-7.187,0-10.769
	c-0.786-8.287-4.856-15.916-11.303-21.182c-1.814-1.459-3.784-2.713-5.874-3.738v-67.281
	C613.907,304.848,638.056,278.613,638.126,247.095z M277.065,255.995c0-10.469,8.487-18.957,18.957-18.957
	c10.47,0,18.957,8.487,18.957,18.957c0,10.47-8.487,18.957-18.957,18.957c-10.469,0.001-18.958-8.484-18.959-18.953
	c0-0.12,0.001-0.24,0.003-0.359V255.995z M232.033,274.507c-10.47,0.049-18.997-8.398-19.046-18.867
	c-0.049-10.47,8.398-18.997,18.868-19.045c10.469-0.05,18.996,8.397,19.045,18.867c0,0.059,0,0.118,0,0.178
	C250.851,266.039,242.432,274.458,232.033,274.507z M333.134,410.495H249.12c-1.035-3.185-1.427-6.542-1.158-9.879
	c1.045-12.145,11.738-21.143,23.882-20.099c3.969,0.342,7.772,1.751,11.004,4.079l5.073,3.56l1.869-5.962
	c5.703-18.38,24.562-29.302,43.342-25.099V410.495z M419.638,410.495h-4.005c0-17.8,0-41.563,0-57.938h3.916
	C419.905,369.022,418.927,392.695,419.638,410.495z M484.073,410.495h-47.347c-0.801-29.369-1.424-98.876-1.335-108.844
	c4.469,9.479,6.106,20.048,4.717,30.437c-0.979,9.612,14.062,9.523,15.041,0c2.313-22.517-6.141-52.241-32.396-54.021
	c-3.784-0.813-7.697-0.813-11.48,0c-25.009,2.937-33.107,31.861-30.793,53.933c0.979,9.522,16.02,9.612,15.041,0
	c-1.157-9.598,0.129-19.332,3.738-28.301c0,0,0,76.715-0.802,106.797h-50.728V244.426l68.171-49.928l68.172,49.928V410.495z
	 M582.948,385.575c4.567,3.746,7.451,9.16,8.01,15.041c0.322,3.284,0.322,6.594,0,9.879h-91.935v-50.729
	c1.554-0.766,3.16-1.42,4.807-1.957c19.368-5.612,39.665,5.308,45.655,24.563l1.869,5.963l5.072-3.56
	c3.116-2.244,6.77-3.626,10.591-4.005c5.745-0.514,11.464,1.244,15.931,4.895V385.575z M577.431,241.4
	c-2.999,0-5.43,2.431-5.43,5.428l0,0v25.81c-6.566-2.865-10.775-9.389-10.679-16.553c0-3.023-2.45-5.473-5.475-5.473
	c-3.022,0-5.473,2.45-5.473,5.473c-0.265,13.349,8.753,25.101,21.716,28.301v13.883c-28.299-3.022-48.788-28.413-45.766-56.711
	c3.023-28.298,28.414-48.787,56.712-45.764s48.787,28.413,45.765,56.711c-2.578,24.126-21.638,43.188-45.765,45.764v-13.883
	c12.962-3.2,21.979-14.953,21.715-28.301c0-3.023-2.45-5.473-5.473-5.473s-5.474,2.45-5.474,5.473
	c0.176,7.304-4.13,13.973-10.857,16.82v-25.809c0.147-2.995-2.16-5.542-5.154-5.69C577.673,241.399,577.551,241.398,577.431,241.4z"
	/>
<path fill="#FFFFFF" d="M327.349,222.799h1.246c1.665,0.007,3.288-0.524,4.627-1.513l82.768-61.23l84.369,61.32
	c3.547,2.39,8.341,1.61,10.947-1.78c2.486-3.524,1.695-8.391-1.78-10.947l-88.997-64.701c-2.671-1.875-6.23-1.875-8.9,0
	L370.69,173.94v-23.584c0-4.325-3.506-7.832-7.832-7.832c-4.326,0-7.832,3.507-7.832,7.832v35.599l-30.704,23.05
	c-3.445,2.583-4.196,7.445-1.691,10.946C323.802,221.447,325.481,222.46,327.349,222.799z"/>
</svg>
