<?xml version="1.0" encoding="utf-8"?>
<!-- Generator: Adobe Illustrator 15.0.0, SVG Export Plug-In . SVG Version: 6.00 Build 0)  -->
<!DOCTYPE svg PUBLIC "-//W3C//DTD SVG 1.1//EN" "http://www.w3.org/Graphics/SVG/1.1/DTD/svg11.dtd">
<svg version="1.1" id="Layer_1" xmlns="http://www.w3.org/2000/svg" xmlns:xlink="http://www.w3.org/1999/xlink" x="0px" y="0px"
	 width="434.13px" height="434.13px" viewBox="203.88 80.575 434.13 434.13" enable-background="new 203.88 80.575 434.13 434.13"
	 xml:space="preserve">
<g>
	<title>herramientas</title>
	<path fill="#FFFFFF" d="M310.337,263.486c12.059-1.575,24.166,2.548,32.754,11.158l21.597,21.598l20.397-20.399l-29.516-29.394
		c-3.742-5.469-2.343-12.937,3.125-16.678c4.085-2.795,9.468-2.795,13.551,0l29.395,29.517l20.398-20.398l-21.717-21.596
		c-8.436-8.679-12.378-20.774-10.679-32.755c6.658-50.321-28.737-96.511-79.057-103.168c-8.531-1.128-17.178-1.054-25.688,0.223
		c-3.007,0.494-5.046,3.331-4.553,6.339c0.188,1.145,0.731,2.201,1.553,3.019l27.836,27.717
		c13.253,13.173,13.318,34.598,0.144,47.849c-0.047,0.049-0.097,0.097-0.144,0.144l-17.157,17.038
		c-13.079,13.253-34.427,13.394-47.68,0.313c-0.105-0.104-0.21-0.208-0.314-0.313l-27.956-27.957
		c-2.215-2.094-5.707-1.996-7.803,0.219c-0.758,0.802-1.258,1.813-1.436,2.902c-7.539,50.128,26.988,96.877,77.116,104.416
		C293.064,264.564,301.76,264.634,310.337,263.486z"/>
	<path fill="#FFFFFF" d="M483.352,300.2l-20.397,20.037L584.257,441.78c3.744,5.469,2.343,12.935-3.126,16.678
		c-4.085,2.795-9.467,2.795-13.55,0L446.278,337.155l-20.638,20.278l125.263,125.021c15.904,15.771,41.582,15.661,57.351-0.243
		c15.677-15.81,15.677-41.299,0-57.107L483.352,300.2z"/>
	<path fill="#FFFFFF" d="M530.265,219.092h53.872l53.873-107.985l-26.876-26.636l-107.985,53.873v53.872L356.77,338.355
		l-26.276-26.275L224.189,418.262c-21.986,22.246-21.775,58.103,0.47,80.089c22.084,21.828,57.627,21.802,79.679-0.06
		l106.185-106.065l-26.877-26.995L530.265,219.092z"/>
</g>
</svg>
