<?xml version="1.0" encoding="utf-8"?>
<!-- Generator: Adobe Illustrator 15.0.0, SVG Export Plug-In . SVG Version: 6.00 Build 0)  -->
<!DOCTYPE svg PUBLIC "-//W3C//DTD SVG 1.1//EN" "http://www.w3.org/Graphics/SVG/1.1/DTD/svg11.dtd">
<svg version="1.1" id="Layer_1" xmlns="http://www.w3.org/2000/svg" xmlns:xlink="http://www.w3.org/1999/xlink" x="0px" y="0px"
	 width="434.13px" height="434.13px" viewBox="203.88 80.575 434.13 434.13" enable-background="new 203.88 80.575 434.13 434.13"
	 xml:space="preserve">
<title>institucion</title>
<rect x="282.405" y="241.798" fill="#FFFFFF" width="36.338" height="159.604"/>
<rect x="362.656" y="241.798" fill="#FFFFFF" width="36.338" height="159.604"/>
<rect x="442.907" y="241.798" fill="#FFFFFF" width="36.339" height="159.604"/>
<rect x="523.031" y="241.798" fill="#FFFFFF" width="36.338" height="159.604"/>
<path fill="#FFFFFF" d="M258.907,424.771c-1.723,0.723-3.293,1.77-4.623,3.082c-0.667,0.668-1.269,1.399-1.797,2.183
	c-3.322,4.882-3.322,11.297,0,16.179c0.528,0.783,1.13,1.515,1.797,2.184c1.33,1.313,2.9,2.358,4.623,3.081
	c1.786,0.763,3.708,1.155,5.649,1.155h312.79c1.942,0,3.863-0.393,5.649-1.155c2.604-1.099,4.833-2.927,6.42-5.265
	c3.321-4.882,3.321-11.297,0-16.179c-1.587-2.337-3.816-4.166-6.42-5.265c-1.786-0.763-3.707-1.155-5.649-1.155h-312.79
	C262.615,423.616,260.693,424.009,258.907,424.771z"/>
<path fill="#FFFFFF" d="M623.443,474.463h-405.11c-8.013-0.009-14.517,6.479-14.528,14.492c-0.01,8.014,6.479,14.518,14.492,14.528
	c0.013,0,0.024,0,0.036,0h405.11c8.014-0.011,14.501-6.515,14.492-14.528C637.925,480.955,631.442,474.473,623.443,474.463z"/>
<path fill="#FFFFFF" d="M249.919,205.717h9.373v13.867h323.319v-13.867h9.373c8.936-0.045,16.144-7.324,16.099-16.259
	c-0.028-5.93-3.3-11.368-8.522-14.174l-171.033-81.92c-4.703-2.466-10.319-2.466-15.023,0l-171.16,81.92
	c-7.872,4.228-10.826,14.037-6.597,21.909C238.551,202.416,243.99,205.687,249.919,205.717z"/>
</svg>
