<?xml version="1.0" encoding="utf-8"?>
<!-- Generator: Adobe Illustrator 15.0.0, SVG Export Plug-In . SVG Version: 6.00 Build 0)  -->
<!DOCTYPE svg PUBLIC "-//W3C//DTD SVG 1.1//EN" "http://www.w3.org/Graphics/SVG/1.1/DTD/svg11.dtd">
<svg version="1.1" id="Layer_1" xmlns="http://www.w3.org/2000/svg" xmlns:xlink="http://www.w3.org/1999/xlink" x="0px" y="0px"
	 width="434.13px" height="434.13px" viewBox="203.88 80.575 434.13 434.13" enable-background="new 203.88 80.575 434.13 434.13"
	 xml:space="preserve">
<g>
	<title>pago</title>
	<path fill="#FFFFFF" d="M494.705,277.115c0-49.213-39.896-89.108-89.109-89.108c-49.212,0-89.107,39.895-89.107,89.108
		c0,49.212,39.895,89.108,89.107,89.108C454.787,366.169,494.651,326.304,494.705,277.115z M430.873,317.539
		c-4.752,4.405-10.776,7.193-17.212,7.965v9.836c0,1.25-1.013,2.261-2.261,2.261h-9.836c-1.25,0-2.262-1.011-2.262-2.261v-9.836
		c-6.832-0.905-13.219-3.893-18.293-8.557c-5.594-5.941-8.355-14.006-7.573-22.129c-0.045-0.26-0.045-0.526,0-0.787
		c0.38-0.955,1.244-1.631,2.263-1.771h17.408c1.25,0,2.263,1.013,2.263,2.263c-0.305,3.551,0.79,7.078,3.049,9.836
		c2.19,2.015,5.09,3.075,8.064,2.95c2.546,0.147,5.05-0.699,6.983-2.361c1.601-1.728,2.421-4.041,2.263-6.393
		c0.074-2.399-0.73-4.742-2.263-6.588c-2.578-2.357-5.629-4.135-8.951-5.214c-7.735-2.337-14.948-6.143-21.243-11.211
		c-5.028-4.996-7.678-11.905-7.277-18.983c-0.216-6.93,2.414-13.647,7.277-18.589c4.702-4.513,10.743-7.377,17.211-8.163v-11.311
		c0-1.249,1.013-2.263,2.263-2.263h9.835c1.25,0,2.263,1.014,2.263,2.263v11.507c6.46,1.25,12.274,4.731,16.424,9.836
		c4.672,5.878,7.047,13.252,6.688,20.753c0.105,0.386,0.105,0.793,0,1.18c-0.474,0.764-1.27,1.271-2.163,1.377h-17.803
		c-1.249,0.011-2.271-0.993-2.28-2.243c-0.002-0.105,0.005-0.21,0.019-0.314c0.121-3.514-0.916-6.969-2.951-9.835
		c-1.464-1.997-3.821-3.138-6.295-3.049c-2.3-0.218-4.577,0.613-6.196,2.262c-1.463,1.875-2.197,4.217-2.067,6.59
		c-0.11,2.269,0.667,4.489,2.164,6.198c2.68,2.392,5.829,4.202,9.246,5.31c7.766,2.735,14.965,6.868,21.244,12.196
		c5.056,4.904,7.744,11.752,7.375,18.786c0.225,6.902-2.408,13.593-7.277,18.491L430.873,317.539L430.873,317.539z"/>
	<path fill="#FFFFFF" d="M632.793,343.011l-10.721-10.328l-4.623-4.523l-4.82,4.326l-5.407,4.82V145.714
		c0-16.893-13.695-30.587-30.588-30.587l0,0H233.971c-16.893,0-30.587,13.695-30.587,30.587l0,0v258.08
		c0,16.894,13.695,30.587,30.587,30.587l0,0h281.39c-5.139-5.097-9.394-11.015-12.59-17.506h-268.8
		c-7.225,0-13.081-5.857-13.081-13.081l0,0v-258.08c0.054-7.186,5.895-12.981,13.081-12.981h342.564
		c7.223-0.11,13.168,5.658,13.277,12.881c0,0.033,0,0.067,0,0.1v183.725c5.34,2.598,10.302,5.906,14.755,9.836l-2.362,2.065
		l-5.113,4.523l-3.05,2.755c-21.528-18.199-53.736-15.501-71.936,6.028c-14.846,17.561-16.116,42.877-3.107,61.835
		c5.221,7.593,12.389,13.641,20.753,17.506c14.328,6.675,30.955,6.274,44.946-1.08c8.995-4.73,16.388-12.021,21.245-20.951
		c3.904-7.226,5.997-15.291,6.098-23.504c-0.02-3.541-0.415-7.067-1.181-10.524l2.853-3.246l6.196-6.884l13.081-14.655l4.524-5.017
		L632.793,343.011z M614.794,362.681l-6.197,6.887l-48.291,53.404l0,0l-37.67-46.815l13.278-11.705l24.392,24l41.505-36.786
		l5.115-4.523l10.522-9.343l10.721,10.327L614.794,362.681z"/>
</g>
</svg>
