<?xml version="1.0" encoding="utf-8"?>
<!-- Generator: Adobe Illustrator 15.0.0, SVG Export Plug-In . SVG Version: 6.00 Build 0)  -->
<!DOCTYPE svg PUBLIC "-//W3C//DTD SVG 1.1//EN" "http://www.w3.org/Graphics/SVG/1.1/DTD/svg11.dtd">
<svg version="1.1" id="Layer_1" xmlns="http://www.w3.org/2000/svg" xmlns:xlink="http://www.w3.org/1999/xlink" x="0px" y="0px"
	 width="434.13px" height="434.13px" viewBox="203.88 80.575 434.13 434.13" enable-background="new 203.88 80.575 434.13 434.13"
	 xml:space="preserve">
<title>paisaje urbano 4</title>
<g>
	<path fill="#FFFFFF" d="M403.754,290.674c-4.245,0-7.686,3.441-7.686,7.687l0,0v9.043c0.46,4.221,4.254,7.268,8.474,6.81
		c3.586-0.392,6.418-3.223,6.809-6.81v-9.043C411.35,294.15,407.964,290.723,403.754,290.674z"/>
	<path fill="#FFFFFF" d="M558.113,299.174c-4.244,0-7.686,3.442-7.686,7.687v9.043c-0.46,4.22,2.588,8.014,6.81,8.474
		c4.221,0.46,8.014-2.588,8.474-6.809c0.06-0.554,0.06-1.111,0-1.665v-9.043C565.709,302.651,562.323,299.223,558.113,299.174z"/>
	<path fill="#FFFFFF" d="M580.902,299.174c-4.245,0-7.688,3.442-7.688,7.687v9.043c0.461,4.22,4.255,7.268,8.474,6.809
		c3.588-0.392,6.419-3.223,6.81-6.809v-9.043C588.496,302.651,585.11,299.223,580.902,299.174z"/>
	<path fill="#FFFFFF" d="M355.466,196.63c-4.245,0-7.686,3.441-7.686,7.685l0,0v9.043c0.459,4.22,4.253,7.268,8.474,6.809
		c3.586-0.391,6.418-3.223,6.809-6.809v-9.043C363.062,200.106,359.676,196.679,355.466,196.63z"/>
	<path fill="#FFFFFF" d="M378.073,196.63c-4.245,0-7.686,3.441-7.686,7.685l0,0v9.043c-0.46,4.22,2.588,8.014,6.808,8.474
		c4.22,0.46,8.014-2.588,8.474-6.809c0.061-0.554,0.061-1.112,0-1.665v-9.043C385.669,200.106,382.282,196.679,378.073,196.63z"/>
	<path fill="#FFFFFF" d="M355.466,229.002c-4.245,0-7.686,3.441-7.686,7.687l0,0v9.042c-0.46,4.22,2.588,8.014,6.809,8.474
		c4.22,0.46,8.014-2.588,8.474-6.81c0.06-0.553,0.06-1.111,0-1.665v-9.042C363.062,232.479,359.676,229.052,355.466,229.002z"/>
	<path fill="#FFFFFF" d="M378.073,229.002c-4.245,0-7.686,3.441-7.686,7.687l0,0v9.042c-0.46,4.22,2.588,8.014,6.808,8.474
		c4.22,0.46,8.014-2.588,8.474-6.81c0.061-0.553,0.061-1.111,0-1.665v-9.042C385.669,232.479,382.282,229.052,378.073,229.002z"/>
	<path fill="#FFFFFF" d="M283.124,327.84c-4.245,0-7.686,3.441-7.686,7.687l0,0v9.042c0.459,4.221,4.253,7.269,8.473,6.81
		c3.586-0.391,6.418-3.223,6.809-6.81v-9.042C290.72,331.316,287.333,327.889,283.124,327.84z"/>
	<path fill="#FFFFFF" d="M305.64,327.84c-4.245,0-7.686,3.441-7.686,7.687l0,0v9.042c0.46,4.221,4.254,7.269,8.474,6.81
		c3.586-0.391,6.418-3.223,6.809-6.81v-9.042C313.237,331.316,309.85,327.889,305.64,327.84z"/>
	<path fill="#FFFFFF" d="M403.754,325.398c-4.245,0-7.686,3.44-7.686,7.686l0,0v0.633c0.048,4.096,3.404,7.376,7.499,7.33
		c0.063-0.001,0.125-0.002,0.187-0.005c4.289-0.146,7.689-3.666,7.687-7.958C411.441,328.84,407.999,325.398,403.754,325.398
		L403.754,325.398z"/>
	<path fill="#FFFFFF" d="M211.686,445.937h-0.905c-4.094,0.048-7.376,3.405-7.329,7.5c0.001,0.063,0.002,0.124,0.005,0.187
		c0.146,4.288,3.666,7.688,7.958,7.686c4.22-0.46,7.269-4.253,6.808-8.473c-0.391-3.587-3.222-6.419-6.808-6.81L211.686,445.937z"/>
	<path fill="#FFFFFF" d="M469.133,173.209c-4.245,0-7.687,3.44-7.687,7.685l0,0v0.633c0.048,4.095,3.405,7.376,7.5,7.329
		c0.062,0,0.124-0.002,0.187-0.004c4.288-0.146,7.688-3.666,7.686-7.958C476.819,176.65,473.378,173.209,469.133,173.209
		L469.133,173.209z"/>
	<path fill="#FFFFFF" d="M630.364,445.937h-14.016V290.764c0.451-13.027-9.744-23.953-22.771-24.404
		c-0.155-0.006-0.312-0.01-0.468-0.012h-50.911V209.74c-0.146-4.138-3.544-7.417-7.686-7.415h-29.299v-41.868
		c0.011-1.512-0.431-2.991-1.266-4.25l-28.485-42.953c-2.408-3.496-7.193-4.377-10.689-1.969c-0.771,0.531-1.438,1.198-1.969,1.969
		l-29.118,42.231c-0.879,1.277-1.353,2.79-1.356,4.339v42.501h-20.979v-9.947c0-12.585-10.202-22.788-22.788-22.788l0,0h-43.858
		c-12.585,0-22.788,10.203-22.788,22.788l0,0v106.163h-46.932c-13.136,0-23.782,10.647-23.782,23.782l0,0v123.614h-14.017
		c-4.22,0.459-7.268,4.254-6.808,8.474c0.391,3.587,3.222,6.418,6.808,6.809h21.703c4.245,0,7.686-3.441,7.686-7.686v-131.21
		c0-4.694,3.806-8.501,8.5-8.501l0,0h47.023v65.289c-0.46,4.221,2.589,8.015,6.809,8.474c4.221,0.461,8.014-2.588,8.474-6.808
		c0.06-0.555,0.06-1.112,0-1.666V192.379c0.048-4.074,3.34-7.366,7.415-7.415h43.948c4.074,0.048,7.366,3.34,7.415,7.415v78.129
		c-0.459,4.22,2.589,8.014,6.809,8.474c4.22,0.46,8.013-2.588,8.474-6.809c0.06-0.553,0.06-1.111,0-1.665v-53.081h28.484
		c4.245,0,7.686-3.441,7.686-7.687l0,0v-47.564l21.432-31.107l20.979,31.65v47.022c0,4.245,3.441,7.687,7.687,7.687h29.569v134.194
		c0.46,4.22,4.253,7.269,8.474,6.809c3.586-0.391,6.418-3.223,6.809-6.809v-69.991h50.82c4.591,0.182,8.165,4.051,7.983,8.642
		c-0.006,0.134-0.014,0.267-0.025,0.399v162.77c0,4.245,3.44,7.687,7.686,7.687h21.702c4.222-0.46,7.269-4.254,6.81-8.475
		c-0.391-3.586-3.222-6.418-6.81-6.809L630.364,445.937z"/>
</g>
</svg>
