<?xml version="1.0" encoding="utf-8"?>
<!-- Generator: Adobe Illustrator 15.0.0, SVG Export Plug-In . SVG Version: 6.00 Build 0)  -->
<!DOCTYPE svg PUBLIC "-//W3C//DTD SVG 1.1//EN" "http://www.w3.org/Graphics/SVG/1.1/DTD/svg11.dtd">
<svg version="1.1" id="Layer_1" xmlns="http://www.w3.org/2000/svg" xmlns:xlink="http://www.w3.org/1999/xlink" x="0px" y="0px"
	 width="434.13px" height="434.13px" viewBox="203.88 80.575 434.13 434.13" enable-background="new 203.88 80.575 434.13 434.13"
	 xml:space="preserve">
<title>paisaje urbano 3</title>
<path fill="#FFFFFF" d="M364.739,205.749h-2.995c-2.442,0-4.492,1.418-4.492,3.074v9.378c0,1.734,2.049,3.074,4.492,3.074h2.995
	c2.443,0,4.493-1.419,4.493-3.074v-9.063C369.231,207.088,367.26,205.749,364.739,205.749z"/>
<path fill="#FFFFFF" d="M385.544,205.749h-3.231c-2.443,0-4.493,1.418-4.493,3.074v9.378c0,1.734,2.049,3.074,4.493,3.074h2.994
	c2.443,0,4.493-1.419,4.493-3.074v-9.063C390.194,207.088,387.987,205.749,385.544,205.749z"/>
<path fill="#FFFFFF" d="M364.739,230.968h-2.995c-2.442,0-4.492,1.419-4.492,3.075v9.378c0,1.734,2.049,3.073,4.492,3.073h2.995
	c2.443,0,4.493-1.418,4.493-3.073v-9.378C369.231,232.308,367.26,230.968,364.739,230.968z"/>
<path fill="#FFFFFF" d="M385.307,230.731h-2.994c-2.443,0-4.493,1.418-4.493,3.074v9.378c0,1.734,2.049,3.074,4.493,3.074h2.994
	c2.443,0,4.493-1.419,4.493-3.074v-9.3C390.194,232.15,387.751,230.731,385.307,230.731z"/>
<path fill="#FFFFFF" d="M606.683,400.329h-48.468v-36.016c9.093-2.024,16.825-7.968,21.121-16.235
	c17.383-0.953,30.702-15.819,29.748-33.203c-0.438-8.015-3.919-15.56-9.73-21.096c0.311-1.77,0.468-3.562,0.473-5.359
	c-0.104-17.41-14.303-31.438-31.713-31.333c-5.47,0.033-10.837,1.488-15.573,4.222c-14.924-8.967-34.29-4.138-43.257,10.785
	c-3.911,6.507-5.341,14.208-4.028,21.685c-12.611,12.003-13.104,31.957-1.101,44.568c5.07,5.328,11.843,8.714,19.147,9.574
	c4.176,7.854,11.475,13.578,20.097,15.763v36.331h-58.082V232.071c-0.044-11.938-9.734-21.593-21.673-21.593h-47.286l-1.261,0.473
	v-9.063c-0.042-11.647-9.474-21.078-21.12-21.121h-40.744c-11.647,0.043-21.078,9.475-21.121,21.121v63.048h-43.66
	c-12.17,0.042-22.024,9.896-22.067,22.065V400.33h-15.762c-3.917-0.003-7.096,3.169-7.099,7.086c-0.004,3.917,3.168,7.097,7.085,7.1
	c0.004,0,0.008,0,0.014,0h356.217c3.917,0.004,7.097-3.17,7.1-7.086c0.004-3.918-3.169-7.097-7.086-7.1c-0.005,0-0.009,0-0.014,0
	L606.683,400.329L606.683,400.329z M534.257,339.252c-0.899-2.687-3.393-4.518-6.227-4.57l0,0h-0.629
	c-10.098-0.007-18.279-8.197-18.274-18.295c0.003-5.96,2.911-11.543,7.792-14.964c2.358-1.66,3.352-4.669,2.442-7.408
	c-3.096-9.657,2.222-19.996,11.879-23.092c5.948-1.907,12.459-0.66,17.281,3.312c2.436,2.053,5.997,2.053,8.432,0
	c7.829-6.447,19.401-5.329,25.849,2.5c3.971,4.822,5.22,11.333,3.312,17.28c-0.908,2.739,0.084,5.748,2.442,7.408
	c8.539,5.472,11.026,16.829,5.555,25.368c-3.517,5.489-9.68,8.702-16.193,8.442h-1.97c-3.063-0.348-5.952,1.491-6.936,4.412
	c-1.714,5.212-5.678,9.378-10.797,11.35v-9.772c0-2.612-2.116-4.729-4.729-4.729h-5.044c-2.611,0-4.729,2.117-4.729,4.729v8.748
	C539.249,347.814,535.84,343.951,534.257,339.252L534.257,339.252z M471.209,400.329H280.57V286.923
	c0-4.354,3.529-7.882,7.882-7.882h43.659v60.684c0,3.917,3.176,7.093,7.093,7.093c3.917,0,7.093-3.176,7.093-7.093V201.887
	c0-3.831,3.105-6.936,6.936-6.936h40.822c3.83,0,6.936,3.104,6.936,6.936v91.104c0.003,3.917,3.182,7.089,7.099,7.086
	c3.912-0.004,7.084-3.175,7.086-7.086V224.9l1.261-0.473h47.285c4.091,0,7.408,3.317,7.408,7.409l0,0L471.209,400.329z"/>
<path fill="#FFFFFF" d="M434.641,235.46h-2.993c-2.443,0-4.493,1.418-4.493,3.073v9.379c0,1.733,2.049,3.074,4.493,3.074h2.993
	c1.597,0.09,3.133-0.62,4.1-1.892c0.103-0.387,0.103-0.795,0-1.183v-9.379c0.103-0.387,0.103-0.794,0-1.182
	C437.774,236.079,436.238,235.37,434.641,235.46z"/>
<path fill="#FFFFFF" d="M455.448,235.46h-2.995c-2.442,0-4.491,1.418-4.491,3.073v9.379c0,1.733,2.048,3.074,4.491,3.074h2.995
	c2.443,0,4.492-1.418,4.492-3.074v-9.379C459.861,236.8,457.891,235.46,455.448,235.46z"/>
<path fill="#FFFFFF" d="M438.267,261.939c-1-0.999-2.37-1.542-3.783-1.497h-2.994c-2.443,0-4.492,1.419-4.492,3.074v9.378
	c0.025,0.698,0.339,1.354,0.867,1.813c1,1,2.369,1.542,3.783,1.498h2.993c2.443,0,4.493-1.419,4.493-3.075v-9.378
	C439.109,263.054,438.795,262.398,438.267,261.939z"/>
<path fill="#FFFFFF" d="M455.21,260.442h-2.994c-2.442,0-4.492,1.419-4.492,3.074v9.378c0,1.734,2.049,3.074,4.492,3.074h2.994
	c2.443,0,4.493-1.418,4.493-3.074v-9.3C459.703,261.861,457.655,260.442,455.21,260.442z"/>
<path fill="#FFFFFF" d="M297.435,289.523h-2.994c-2.443,0-4.493,1.419-4.493,3.074v9.379c0,1.734,2.049,3.073,4.493,3.073h2.994
	c2.443,0,4.493-1.418,4.493-3.073v-9.379C301.927,290.942,299.957,289.523,297.435,289.523z"/>
<path fill="#FFFFFF" d="M318.241,289.523h-2.995c-2.443,0-4.492,1.419-4.492,3.074v9.379c0,1.734,2.048,3.073,4.492,3.073h2.995
	c2.443,0,4.492-1.418,4.492-3.073v-9.379C322.733,290.942,320.684,289.523,318.241,289.523z"/>
<path fill="#FFFFFF" d="M297.435,314.742h-2.994c-2.443,0-4.493,1.419-4.493,3.074v9.535c0,1.734,2.049,3.075,4.493,3.075h2.994
	c2.443,0,4.493-1.419,4.493-3.075v-9.535C301.927,316.161,299.957,314.742,297.435,314.742z"/>
<path fill="#FFFFFF" d="M318.004,314.506h-2.994c-2.443,0-4.493,1.419-4.493,3.074v9.771c0,1.734,2.049,3.075,4.493,3.075h2.994
	c2.443,0,4.493-1.419,4.493-3.075v-9.693C322.496,315.925,320.448,314.506,318.004,314.506z"/>
</svg>
