<?xml version="1.0" encoding="utf-8"?>
<!-- Generator: Adobe Illustrator 15.0.0, SVG Export Plug-In . SVG Version: 6.00 Build 0)  -->
<!DOCTYPE svg PUBLIC "-//W3C//DTD SVG 1.1//EN" "http://www.w3.org/Graphics/SVG/1.1/DTD/svg11.dtd">
<svg version="1.1" id="Layer_1" xmlns="http://www.w3.org/2000/svg" xmlns:xlink="http://www.w3.org/1999/xlink" x="0px" y="0px"
	 width="434.13px" height="434.13px" viewBox="203.88 80.575 434.13 434.13" enable-background="new 203.88 80.575 434.13 434.13"
	 xml:space="preserve">
<title>vivienda familia</title>
<g>
	<path fill="#FFFFFF" d="M427.253,143.913c-3.739-2.714-8.801-2.714-12.54,0L252.774,261.3c-2.776,2.014-4.414,5.241-4.403,8.67
		v234.506c0,5.894,4.778,10.672,10.672,10.672h323.88c5.893,0,10.671-4.778,10.671-10.672V269.97c0.011-3.43-1.626-6.656-4.402-8.67
		L427.253,143.913z M361.357,444.717h6.936v49.089h-6.802L361.357,444.717z M384.033,381.887v-19.742
		c1.672,4.296,2.835,8.772,3.468,13.339c1.395,6.664,1.977,13.473,1.734,20.276c-0.06,2.876,1.482,5.549,4.001,6.937
		c-1.313,5.702,0.458,11.676,4.669,15.741c2.289,1.656,5.045,2.544,7.871,2.534h1.333c0,0,0,50.822,0,73.099h-23.077v-50.688
		c7.737-1.201,13.339-3.335,13.339-6.27C396.839,431.11,386.302,391.358,384.033,381.887z M446.196,402.563l1.334-0.801
		c1.217-1.09,2.057-2.537,2.4-4.135c1.858-8.653,4.174-17.203,6.937-25.612v121.79h-24.944c0-22.144,0-72.7,0-73.101h1.334
		c2.825,0.01,5.58-0.877,7.869-2.534C445.458,414.232,447.387,408.297,446.196,402.563z M480.076,493.805h-4.935v-79.237h5.202
		L480.076,493.805z M420.85,493.805h-1.867v-42.687h1.867V493.805z M572.118,493.805h-74.167V372.149
		c3.725,7.178,4.946,15.395,3.469,23.345c-0.463,4.248,2.606,8.066,6.854,8.528c0.027,0.003,0.054,0.007,0.081,0.009h0.801
		c3.979,0.021,7.325-2.979,7.737-6.938c3.468-34.814-12.272-52.289-24.545-58.959c-4.756-2.399-10.014-3.634-15.34-3.603
		c-5.272-0.229-10.488,1.169-14.94,4.002c-15.074,9.738-20.143,23.211-26.679,55.358c-0.584,2.767,0.388,5.631,2.534,7.471
		c0.667,4.936,0,8.537-1.2,9.604c-1.201,1.066-6.803-1.2-8.137-2.268c-1.528-1.215-3.304-2.081-5.203-2.534h-5.869
		c-1.898,0.453-3.675,1.319-5.202,2.534c-1.334,1.067-5.202,4.269-8.137,2.268s-2-4.802-1.2-9.872
		c1.667-1.444,2.636-3.53,2.668-5.735c2.134-47.088-23.878-57.626-23.878-57.626c-5.212-2.972-11.274-4.1-17.208-3.202
		c-5.626-0.181-11.211,1.01-16.274,3.469c-4.269,2.135-26.012,11.339-23.877,58.427c0.073,4.221,3.515,7.604,7.736,7.604l0,0
		c4.272-0.073,7.676-3.596,7.604-7.868c0-0.001,0-0.002,0-0.002c-0.244-6.805,0.338-13.613,1.734-20.276
		c0.651-4.346,1.815-8.601,3.468-12.672v19.208c-2.134,9.472-13.339,49.223-13.339,55.226c0,2.935,4.535,5.069,12.272,6.27v50.423
		h-74.167V275.439l151.268-109.65l151.268,109.65L572.118,493.805z"/>
	<path fill="#FFFFFF" d="M630.411,230.085L427.92,83.352c-4.026-2.734-9.313-2.734-13.34,0l-95.642,69.365V92.956
		c0-6.594-5.346-11.938-11.939-11.938c-6.594,0-11.939,5.344-11.939,11.938v77.235l-83.505,59.894
		c-5.877,2.905-8.288,10.025-5.383,15.903c2.905,5.878,10.025,8.289,15.903,5.383c1.029-0.509,1.979-1.164,2.819-1.944
		l196.089-141.665l195.422,141.665c4.805,4.462,12.316,4.185,16.777-0.62c4.463-4.805,4.186-12.316-0.619-16.778
		c-0.841-0.782-1.79-1.437-2.819-1.944H630.411z"/>
	<path fill="#FFFFFF" d="M365.359,291.313L365.359,291.313c-11.051,0-20.01,8.958-20.01,20.01c0,11.05,8.958,20.008,20.01,20.008
		l0,0c11.05,0,20.009-8.958,20.009-20.008C385.367,300.271,376.408,291.313,365.359,291.313z"/>
	<circle fill="#FFFFFF" cx="477.408" cy="311.322" r="20.009"/>
	<path fill="#FFFFFF" d="M420.049,381.22L420.049,381.22c-6.63,0.006-12,5.386-11.994,12.017
		c0.005,6.622,5.372,11.988,11.994,11.994h0.801c6.631-0.006,12.001-5.386,11.995-12.017c-0.007-6.622-5.373-11.988-11.995-11.994
		H420.049z"/>
</g>
</svg>
