<?xml version="1.0" encoding="utf-8"?>
<!-- Generator: Adobe Illustrator 15.0.0, SVG Export Plug-In . SVG Version: 6.00 Build 0)  -->
<!DOCTYPE svg PUBLIC "-//W3C//DTD SVG 1.1//EN" "http://www.w3.org/Graphics/SVG/1.1/DTD/svg11.dtd">
<svg version="1.1" id="Layer_1" xmlns="http://www.w3.org/2000/svg" xmlns:xlink="http://www.w3.org/1999/xlink" x="0px" y="0px"
	 width="1920px" height="100px" viewBox="0 0 1920 100" enable-background="new 0 0 1920 100" xml:space="preserve">
<g>
	<defs>
		<rect id="SVGID_1_" x="0" width="1920" height="100"/>
	</defs>
	<use xlink:href="#SVGID_1_"  overflow="visible" fill="#32BBED"/>
	<clipPath id="SVGID_2_">
		<use xlink:href="#SVGID_1_"  overflow="visible"/>
	</clipPath>
</g>
<g>
	<path fill="#FFFFFF" d="M90.181,45.596V31.793c0.638-0.136,1.329-0.241,2.07-0.322c0.739-0.08,1.455-0.118,2.145-0.118
		c2.51,0,4.397,0.594,5.658,1.78c1.26,1.188,1.893,3.009,1.893,5.461c0,1.68-0.298,3.049-0.892,4.114
		c-0.594,1.064-1.487,1.847-2.678,2.353c-1.19,0.503-2.694,0.756-4.507,0.756C92.648,45.817,91.42,45.744,90.181,45.596z
		 M97.207,43.196c0.706-0.346,1.234-0.897,1.585-1.651c0.351-0.753,0.528-1.739,0.528-2.96c0-1.208-0.178-2.19-0.528-2.947
		c-0.351-0.755-0.875-1.313-1.574-1.666c-0.699-0.355-1.591-0.533-2.669-0.533c-0.542,0-1.146,0.056-1.81,0.164v10.028
		c0.491,0.06,1.078,0.089,1.761,0.089C95.6,43.721,96.502,43.545,97.207,43.196z"/>
	<path fill="#FFFFFF" d="M104.134,33.091c-0.265-0.234-0.397-0.57-0.397-1.014c0-0.439,0.132-0.776,0.397-1.014
		c0.264-0.233,0.662-0.354,1.193-0.354s0.929,0.121,1.192,0.354c0.265,0.238,0.398,0.575,0.398,1.014
		c0,0.443-0.133,0.78-0.398,1.014c-0.264,0.231-0.662,0.348-1.192,0.348S104.398,33.323,104.134,33.091z M104.062,45.684V35.231
		h2.521v10.452H104.062z"/>
	<path fill="#FFFFFF" d="M109.071,35.231h2.069l0.192,1.361h0.133c0.309-0.492,0.711-0.861,1.214-1.111
		c0.501-0.25,1.05-0.374,1.651-0.374c0.276,0,0.552,0.021,0.835,0.067v2.278c-0.25-0.042-0.575-0.066-0.978-0.066
		c-0.498,0-0.989,0.104-1.471,0.307c-0.481,0.205-0.86,0.493-1.134,0.873v7.117h-2.512V35.231z"/>
	<path fill="#FFFFFF" d="M125.002,41.209h-6.466c0.03,0.678,0.159,1.216,0.384,1.613c0.222,0.4,0.568,0.688,1.034,0.869
		c0.465,0.18,1.087,0.269,1.868,0.269c0.765,0,1.639-0.122,2.625-0.365v1.907c-1.004,0.25-1.993,0.374-2.971,0.374
		c-1.244,0-2.268-0.189-3.071-0.564c-0.8-0.379-1.398-0.964-1.796-1.759c-0.396-0.795-0.594-1.828-0.594-3.101
		c0-1.167,0.183-2.155,0.547-2.958c0.365-0.804,0.892-1.41,1.581-1.817c0.69-0.402,1.523-0.608,2.5-0.608
		c1.425,0,2.507,0.458,3.246,1.375c0.742,0.917,1.113,2.278,1.113,4.088V41.209z M119.081,37.396
		c-0.351,0.46-0.535,1.231-0.554,2.309h4.128c-0.019-1.078-0.196-1.849-0.531-2.309c-0.336-0.458-0.835-0.689-1.499-0.689
		C119.946,36.707,119.432,36.938,119.081,37.396z"/>
	<path fill="#FFFFFF" d="M127.686,44.539c-0.877-0.894-1.315-2.247-1.315-4.067c0-1.833,0.468-3.192,1.401-4.077
		c0.931-0.884,2.294-1.328,4.088-1.328c0.811,0,1.569,0.084,2.27,0.25v2.014c-0.694-0.15-1.344-0.223-1.943-0.223
		c-0.748,0-1.358,0.112-1.831,0.334c-0.473,0.225-0.824,0.581-1.053,1.069c-0.229,0.489-0.346,1.132-0.346,1.93
		c0,1.207,0.241,2.077,0.725,2.601c0.482,0.528,1.221,0.791,2.218,0.791c0.325,0,0.667-0.029,1.02-0.089
		c0.355-0.061,0.757-0.154,1.21-0.285v2.013c-0.815,0.27-1.686,0.403-2.605,0.403C129.839,45.875,128.56,45.428,127.686,44.539z"/>
	<path fill="#FFFFFF" d="M136.613,44.539c-0.877-0.894-1.315-2.247-1.315-4.067c0-1.833,0.468-3.192,1.401-4.077
		c0.931-0.884,2.294-1.328,4.088-1.328c0.811,0,1.569,0.084,2.271,0.25v2.014c-0.694-0.15-1.344-0.223-1.943-0.223
		c-0.748,0-1.359,0.112-1.831,0.334c-0.473,0.225-0.824,0.581-1.053,1.069c-0.229,0.489-0.346,1.132-0.346,1.93
		c0,1.207,0.241,2.077,0.725,2.601c0.482,0.528,1.221,0.791,2.217,0.791c0.325,0,0.667-0.029,1.02-0.089
		c0.355-0.061,0.758-0.154,1.211-0.285v2.013c-0.816,0.27-1.686,0.403-2.605,0.403C138.767,45.875,137.487,45.428,136.613,44.539z"
		/>
	<path fill="#FFFFFF" d="M144.796,33.091c-0.265-0.234-0.398-0.57-0.398-1.014c0-0.439,0.133-0.776,0.398-1.014
		c0.264-0.233,0.662-0.354,1.193-0.354c0.531,0,0.928,0.121,1.193,0.354c0.264,0.238,0.397,0.575,0.397,1.014
		c0,0.443-0.133,0.78-0.397,1.014c-0.265,0.231-0.662,0.348-1.193,0.348C145.458,33.439,145.06,33.323,144.796,33.091z
		 M144.723,45.684V35.231h2.521v10.452H144.723z"/>
	<path fill="#FFFFFF" d="M150.523,44.525c-0.858-0.903-1.289-2.25-1.289-4.043c0-1.808,0.424-3.163,1.271-4.063
		c0.846-0.9,2.046-1.352,3.597-1.352c1.553,0,2.75,0.451,3.597,1.352s1.27,2.25,1.27,4.053c0,1.2-0.196,2.204-0.589,3.008
		c-0.393,0.805-0.952,1.406-1.682,1.801c-0.727,0.396-1.593,0.595-2.596,0.595C152.577,45.875,151.384,45.423,150.523,44.525z
		 M155.851,43.154c0.393-0.524,0.589-1.412,0.589-2.663c0-1.271-0.197-2.171-0.589-2.697c-0.393-0.528-0.975-0.791-1.75-0.791
		c-0.772,0-1.354,0.262-1.747,0.787c-0.393,0.523-0.589,1.412-0.589,2.661c0,0.862,0.091,1.551,0.273,2.06
		c0.18,0.513,0.442,0.877,0.783,1.098c0.341,0.219,0.77,0.332,1.279,0.332C154.876,43.941,155.458,43.679,155.851,43.154z
		 M152.954,33.805l2.107-3.603h2.683l-2.491,3.603H152.954z"/>
	<path fill="#FFFFFF" d="M160.959,35.231h2.079l0.173,1.104h0.134c0.397-0.412,0.865-0.723,1.403-0.94
		c0.54-0.217,1.118-0.327,1.73-0.327c1.078,0,1.932,0.318,2.556,0.955c0.627,0.636,0.94,1.641,0.94,3.012v6.65h-2.51v-6.505
		c0-0.696-0.147-1.193-0.442-1.489c-0.293-0.297-0.72-0.447-1.284-0.447c-0.42,0-0.835,0.089-1.244,0.265s-0.75,0.439-1.024,0.79
		v7.387h-2.512V35.231z"/>
	<path fill="#FFFFFF" d="M187.993,38.786v6.745c-1.195,0.197-2.327,0.295-3.4,0.295c-2.619,0-4.575-0.584-5.868-1.756
		c-1.293-1.172-1.943-2.987-1.948-5.447c0-2.452,0.655-4.28,1.967-5.489c1.314-1.208,3.211-1.81,5.697-1.81
		c1.097,0,2.153,0.128,3.169,0.383v2.126c-0.971-0.248-1.96-0.375-2.968-0.375c-1.176,0-2.145,0.173-2.904,0.519
		c-0.76,0.345-1.331,0.898-1.714,1.661c-0.384,0.762-0.573,1.768-0.573,3.012c0,1.763,0.405,3.046,1.216,3.852
		c0.809,0.805,2.058,1.207,3.744,1.207c0.365,0,0.76-0.017,1.188-0.049v-4.875H187.993z"/>
	<path fill="#FFFFFF" d="M199.02,41.209h-6.467c0.031,0.678,0.159,1.216,0.384,1.613c0.222,0.4,0.569,0.688,1.033,0.869
		c0.466,0.18,1.088,0.269,1.87,0.269c0.764,0,1.639-0.122,2.624-0.365v1.907c-1.003,0.25-1.993,0.374-2.97,0.374
		c-1.244,0-2.269-0.189-3.071-0.564c-0.8-0.379-1.399-0.964-1.796-1.759c-0.396-0.795-0.594-1.828-0.594-3.101
		c0-1.167,0.183-2.155,0.547-2.958c0.365-0.804,0.891-1.41,1.581-1.817c0.69-0.402,1.523-0.608,2.5-0.608
		c1.424,0,2.507,0.458,3.246,1.375c0.742,0.917,1.113,2.278,1.113,4.088V41.209z M193.098,37.396
		c-0.351,0.46-0.535,1.231-0.554,2.309h4.128c-0.019-1.078-0.197-1.849-0.531-2.309c-0.337-0.458-0.834-0.689-1.499-0.689
		C193.964,36.707,193.449,36.938,193.098,37.396z"/>
	<path fill="#FFFFFF" d="M200.887,35.231h2.079l0.173,1.104h0.133c0.398-0.412,0.866-0.723,1.403-0.94
		c0.541-0.217,1.118-0.327,1.73-0.327c1.078,0,1.932,0.318,2.557,0.955c0.626,0.636,0.939,1.641,0.939,3.012v6.65h-2.509v-6.505
		c0-0.696-0.147-1.193-0.442-1.489c-0.292-0.297-0.721-0.447-1.284-0.447c-0.421,0-0.835,0.089-1.245,0.265
		c-0.409,0.175-0.75,0.439-1.024,0.79v7.387h-2.511V35.231z"/>
	<path fill="#FFFFFF" d="M220.794,41.209h-6.466c0.03,0.678,0.159,1.216,0.383,1.613c0.222,0.4,0.568,0.688,1.034,0.869
		c0.465,0.18,1.087,0.269,1.868,0.269c0.765,0,1.64-0.122,2.624-0.365v1.907c-1.003,0.25-1.992,0.374-2.97,0.374
		c-1.244,0-2.269-0.189-3.071-0.564c-0.799-0.379-1.398-0.964-1.796-1.759c-0.395-0.795-0.594-1.828-0.594-3.101
		c0-1.167,0.183-2.155,0.547-2.958c0.365-0.804,0.891-1.41,1.581-1.817c0.69-0.402,1.522-0.608,2.5-0.608
		c1.424,0,2.507,0.458,3.246,1.375c0.741,0.917,1.113,2.278,1.113,4.088V41.209z M214.873,37.396
		c-0.351,0.46-0.536,1.231-0.554,2.309h4.127c-0.019-1.078-0.196-1.849-0.53-2.309c-0.337-0.458-0.835-0.689-1.5-0.689
		C215.738,36.707,215.223,36.938,214.873,37.396z"/>
	<path fill="#FFFFFF" d="M222.66,35.231h2.07l0.192,1.361h0.133c0.309-0.492,0.711-0.861,1.213-1.111
		c0.5-0.25,1.05-0.374,1.651-0.374c0.276,0,0.552,0.021,0.835,0.067v2.278c-0.25-0.042-0.575-0.066-0.978-0.066
		c-0.498,0-0.989,0.104-1.471,0.307c-0.481,0.205-0.86,0.493-1.134,0.873v7.117h-2.512V35.231z"/>
	<path fill="#FFFFFF" d="M236.158,35.465c0.657,0.267,1.148,0.702,1.471,1.31c0.322,0.605,0.484,1.432,0.484,2.469v6.439h-2.079
		l-0.173-1.083h-0.133c-0.314,0.417-0.719,0.729-1.212,0.945c-0.496,0.213-1.042,0.32-1.644,0.32c-0.683,0-1.275-0.121-1.773-0.364
		c-0.498-0.241-0.879-0.588-1.143-1.03c-0.265-0.444-0.398-0.966-0.398-1.567c0-0.97,0.333-1.719,0.996-2.252
		c0.665-0.528,1.715-0.852,3.153-0.966l1.952-0.183v-0.411c0-0.531-0.084-0.948-0.252-1.251c-0.171-0.302-0.436-0.519-0.795-0.646
		c-0.363-0.126-0.847-0.192-1.453-0.192c-0.427,0-0.89,0.038-1.389,0.111c-0.499,0.072-0.977,0.185-1.436,0.329v-1.925
		c0.473-0.147,1.001-0.26,1.585-0.334c0.585-0.077,1.137-0.117,1.661-0.117C234.642,35.067,235.5,35.203,236.158,35.465z
		 M234.726,43.873c0.349-0.14,0.66-0.364,0.933-0.671v-2.222l-1.714,0.154c-0.657,0.061-1.139,0.22-1.44,0.473
		c-0.304,0.252-0.456,0.605-0.456,1.059c0,0.46,0.136,0.812,0.407,1.055c0.272,0.241,0.669,0.363,1.193,0.363
		C234.018,44.083,234.378,44.013,234.726,43.873z"/>
	<path fill="#FFFFFF" d="M240.515,45.684V30.202h2.512v15.481H240.515z"/>
	<path fill="#FFFFFF" d="M251.872,45.33c-0.634-0.36-1.139-0.926-1.513-1.702c-0.374-0.777-0.561-1.759-0.561-2.954
		c0-1.841,0.473-3.235,1.415-4.188c0.941-0.952,2.316-1.428,4.124-1.428c0.428,0,0.894,0.037,1.399,0.107v-4.963h2.509v15.481
		h-2.117l-0.154-1.103h-0.133c-0.313,0.397-0.709,0.708-1.188,0.94c-0.479,0.229-1.017,0.344-1.618,0.344
		C253.229,45.865,252.508,45.686,251.872,45.33z M255.843,43.562c0.358-0.157,0.655-0.388,0.892-0.694v-5.718
		c-0.428-0.098-0.894-0.146-1.399-0.146c-1.015,0-1.771,0.274-2.266,0.819c-0.494,0.547-0.741,1.428-0.741,2.649
		c0,1.214,0.208,2.07,0.622,2.571c0.416,0.502,1.005,0.753,1.772,0.753C255.111,43.795,255.485,43.716,255.843,43.562z"/>
	<path fill="#FFFFFF" d="M270.222,41.209h-6.466c0.03,0.678,0.159,1.216,0.384,1.613c0.222,0.4,0.568,0.688,1.033,0.869
		c0.465,0.18,1.088,0.269,1.869,0.269c0.765,0,1.639-0.122,2.625-0.365v1.907c-1.003,0.25-1.993,0.374-2.971,0.374
		c-1.245,0-2.269-0.189-3.071-0.564c-0.8-0.379-1.398-0.964-1.796-1.759c-0.396-0.795-0.594-1.828-0.594-3.101
		c0-1.167,0.182-2.155,0.547-2.958c0.365-0.804,0.891-1.41,1.581-1.817c0.69-0.402,1.522-0.608,2.5-0.608
		c1.424,0,2.507,0.458,3.246,1.375c0.742,0.917,1.113,2.278,1.113,4.088V41.209z M264.3,37.396c-0.351,0.46-0.536,1.231-0.554,2.309
		h4.128c-0.019-1.078-0.197-1.849-0.532-2.309c-0.336-0.458-0.834-0.689-1.499-0.689C265.166,36.707,264.651,36.938,264.3,37.396z"
		/>
	<path fill="#FFFFFF" d="M280.309,45.684V33.641h-4.561v-2.135h11.678v2.135h-4.559v12.043H280.309z"/>
	<path fill="#FFFFFF" d="M297.295,41.209h-6.467c0.031,0.678,0.159,1.216,0.384,1.613c0.222,0.4,0.568,0.688,1.034,0.869
		c0.465,0.18,1.087,0.269,1.869,0.269c0.765,0,1.639-0.122,2.625-0.365v1.907c-1.004,0.25-1.993,0.374-2.971,0.374
		c-1.244,0-2.269-0.189-3.071-0.564c-0.8-0.379-1.398-0.964-1.796-1.759c-0.396-0.795-0.594-1.828-0.594-3.101
		c0-1.167,0.183-2.155,0.547-2.958c0.365-0.804,0.891-1.41,1.581-1.817c0.69-0.402,1.523-0.608,2.5-0.608
		c1.424,0,2.507,0.458,3.246,1.375c0.742,0.917,1.113,2.278,1.113,4.088V41.209z M291.374,37.396
		c-0.351,0.46-0.536,1.231-0.554,2.309h4.128c-0.019-1.078-0.196-1.849-0.53-2.309c-0.337-0.458-0.835-0.689-1.5-0.689
		C292.239,36.707,291.725,36.938,291.374,37.396z"/>
	<path fill="#FFFFFF" d="M299.978,44.539c-0.877-0.894-1.314-2.247-1.314-4.067c0-1.833,0.468-3.192,1.401-4.077
		c0.931-0.884,2.294-1.328,4.088-1.328c0.811,0,1.569,0.084,2.271,0.25v2.014c-0.694-0.15-1.344-0.223-1.943-0.223
		c-0.748,0-1.359,0.112-1.831,0.334c-0.473,0.225-0.824,0.581-1.052,1.069c-0.229,0.489-0.346,1.132-0.346,1.93
		c0,1.207,0.241,2.077,0.725,2.601c0.482,0.528,1.221,0.791,2.217,0.791c0.325,0,0.667-0.029,1.02-0.089
		c0.355-0.061,0.758-0.154,1.211-0.285v2.013c-0.816,0.27-1.686,0.403-2.605,0.403C302.132,45.875,300.853,45.428,299.978,44.539z"
		/>
	<path fill="#FFFFFF" d="M308.089,35.231h2.079l0.173,1.104h0.133c0.398-0.412,0.866-0.723,1.404-0.94
		c0.54-0.217,1.117-0.327,1.73-0.327c1.079,0,1.932,0.318,2.557,0.955c0.626,0.636,0.94,1.641,0.94,3.012v6.65h-2.51v-6.505
		c0-0.696-0.147-1.193-0.442-1.489c-0.292-0.297-0.721-0.447-1.284-0.447c-0.42,0-0.834,0.089-1.244,0.265
		c-0.409,0.175-0.75,0.439-1.024,0.79v7.387h-2.512V35.231z"/>
	<path fill="#FFFFFF" d="M320.297,44.525c-0.858-0.903-1.289-2.25-1.289-4.043c0-1.808,0.424-3.163,1.271-4.063
		c0.846-0.9,2.046-1.352,3.597-1.352c1.553,0,2.75,0.451,3.597,1.352s1.27,2.25,1.27,4.053c0,1.2-0.196,2.204-0.59,3.008
		c-0.393,0.805-0.951,1.406-1.681,1.801c-0.728,0.396-1.593,0.595-2.596,0.595C322.351,45.875,321.158,45.423,320.297,44.525z
		 M325.625,43.154c0.393-0.524,0.589-1.412,0.589-2.663c0-1.271-0.196-2.171-0.589-2.697c-0.393-0.528-0.975-0.791-1.75-0.791
		c-0.771,0-1.354,0.262-1.747,0.787c-0.394,0.523-0.59,1.412-0.59,2.661c0,0.862,0.091,1.551,0.273,2.06
		c0.18,0.513,0.442,0.877,0.784,1.098c0.341,0.219,0.77,0.332,1.279,0.332C324.65,43.941,325.232,43.679,325.625,43.154z"/>
	<path fill="#FFFFFF" d="M330.735,45.684V30.202h2.511v15.481H330.735z"/>
	<path fill="#FFFFFF" d="M336.536,44.525c-0.858-0.903-1.289-2.25-1.289-4.043c0-1.808,0.423-3.163,1.27-4.063
		s2.046-1.352,3.597-1.352c1.553,0,2.75,0.451,3.597,1.352c0.847,0.9,1.271,2.25,1.271,4.053c0,1.2-0.197,2.204-0.59,3.008
		c-0.393,0.805-0.952,1.406-1.681,1.801c-0.728,0.396-1.593,0.595-2.596,0.595C338.589,45.875,337.396,45.423,336.536,44.525z
		 M341.863,43.154c0.393-0.524,0.589-1.412,0.589-2.663c0-1.271-0.197-2.171-0.589-2.697c-0.393-0.528-0.976-0.791-1.75-0.791
		c-0.772,0-1.354,0.262-1.747,0.787c-0.393,0.523-0.589,1.412-0.589,2.661c0,0.862,0.09,1.551,0.273,2.06
		c0.18,0.513,0.442,0.877,0.784,1.098c0.341,0.219,0.77,0.332,1.279,0.332C340.888,43.941,341.471,43.679,341.863,43.154z"/>
	<path fill="#FFFFFF" d="M348.826,49.979c-0.585-0.075-1.132-0.182-1.642-0.332v-1.99c1.116,0.321,2.173,0.479,3.169,0.479
		c0.716,0,1.297-0.093,1.745-0.273c0.446-0.183,0.776-0.475,0.991-0.877c0.212-0.402,0.32-0.931,0.32-1.591v-0.823h-0.123
		c-0.328,0.376-0.726,0.67-1.193,0.88c-0.47,0.212-0.998,0.318-1.585,0.318c-0.749,0-1.424-0.183-2.03-0.542
		c-0.608-0.36-1.092-0.922-1.457-1.684c-0.364-0.763-0.547-1.722-0.547-2.87c0-1.841,0.479-3.233,1.438-4.178
		c0.957-0.944,2.381-1.419,4.273-1.428c0.625,0,1.272,0.049,1.944,0.145c0.671,0.096,1.268,0.229,1.791,0.403v9.331
		c0,1.207-0.196,2.19-0.589,2.944c-0.393,0.756-0.985,1.313-1.777,1.668c-0.791,0.355-1.796,0.53-3.018,0.53
		C349.981,50.089,349.411,50.054,348.826,49.979z M352.514,43.498c0.355-0.14,0.652-0.351,0.895-0.631v-5.7
		c-0.486-0.108-0.963-0.164-1.436-0.164c-0.992,0-1.733,0.276-2.229,0.823c-0.493,0.55-0.742,1.424-0.742,2.625
		c0,1.194,0.208,2.037,0.622,2.526c0.416,0.489,1.008,0.732,1.782,0.732C351.791,43.709,352.158,43.638,352.514,43.498z"/>
	<path fill="#FFFFFF" d="M358.408,45.684V35.231h2.521v10.452H358.408z M358.525,33.805l2.107-3.603h2.683l-2.491,3.603H358.525z"/>
	<path fill="#FFFFFF" d="M369.472,35.465c0.657,0.267,1.148,0.702,1.472,1.31c0.323,0.605,0.484,1.432,0.484,2.469v6.439h-2.079
		l-0.174-1.083h-0.133c-0.313,0.417-0.718,0.729-1.212,0.945c-0.495,0.213-1.042,0.32-1.644,0.32c-0.683,0-1.274-0.121-1.772-0.364
		c-0.498-0.241-0.879-0.588-1.144-1.03c-0.264-0.444-0.397-0.966-0.397-1.567c0-0.97,0.332-1.719,0.996-2.252
		c0.664-0.528,1.714-0.852,3.153-0.966l1.953-0.183v-0.411c0-0.531-0.084-0.948-0.252-1.251c-0.171-0.302-0.435-0.519-0.795-0.646
		c-0.363-0.126-0.847-0.192-1.453-0.192c-0.428,0-0.891,0.038-1.389,0.111c-0.499,0.072-0.978,0.185-1.437,0.329v-1.925
		c0.473-0.147,1.001-0.26,1.586-0.334c0.584-0.077,1.136-0.117,1.66-0.117C367.957,35.067,368.815,35.203,369.472,35.465z
		 M368.041,43.873c0.349-0.14,0.659-0.364,0.933-0.671v-2.222l-1.714,0.154c-0.658,0.061-1.14,0.22-1.441,0.473
		c-0.304,0.252-0.457,0.605-0.457,1.059c0,0.46,0.136,0.812,0.407,1.055c0.271,0.241,0.669,0.363,1.193,0.363
		C367.332,44.083,367.692,44.013,368.041,43.873z"/>
	<path fill="#FFFFFF" d="M373.514,45.433v-1.875c1.015,0.306,2.07,0.458,3.162,0.458c0.742,0,1.282-0.11,1.623-0.33
		c0.341-0.22,0.512-0.541,0.512-0.961c0-0.341-0.089-0.599-0.267-0.777c-0.18-0.179-0.487-0.313-0.921-0.402l-1.588-0.299
		c-0.966-0.192-1.667-0.528-2.109-1.01c-0.439-0.482-0.659-1.127-0.659-1.939c0-0.652,0.17-1.218,0.512-1.7
		c0.341-0.481,0.86-0.855,1.557-1.127c0.695-0.267,1.558-0.402,2.584-0.402c0.966,0,1.857,0.11,2.673,0.327v1.866
		c-0.824-0.222-1.691-0.332-2.605-0.332c-1.577,0-2.367,0.433-2.367,1.3c0,0.309,0.089,0.553,0.264,0.734
		c0.175,0.182,0.475,0.318,0.896,0.407l1.591,0.295c0.959,0.192,1.663,0.519,2.111,0.981c0.452,0.463,0.676,1.123,0.676,1.979
		c0,0.67-0.173,1.249-0.517,1.735c-0.346,0.486-0.852,0.858-1.519,1.12c-0.668,0.263-1.476,0.394-2.42,0.394
		C375.516,45.875,374.454,45.728,373.514,45.433z"/>
	<path fill="#FFFFFF" d="M91.603,68.319c-0.634-0.357-1.139-0.926-1.513-1.7c-0.375-0.776-0.561-1.761-0.561-2.953
		c0-1.841,0.472-3.237,1.415-4.187c0.94-0.955,2.315-1.43,4.123-1.43c0.428,0,0.894,0.036,1.399,0.106v-4.962h2.51v15.482h-2.117
		l-0.154-1.104H96.57c-0.313,0.397-0.709,0.711-1.188,0.939c-0.479,0.23-1.017,0.347-1.618,0.347
		C92.959,68.858,92.239,68.677,91.603,68.319z M95.574,66.551c0.358-0.154,0.654-0.387,0.891-0.692v-5.72
		c-0.428-0.097-0.894-0.145-1.399-0.145c-1.015,0-1.77,0.276-2.266,0.818c-0.493,0.547-0.741,1.431-0.741,2.652
		c0,1.211,0.208,2.067,0.623,2.57c0.416,0.503,1.005,0.75,1.772,0.75C94.842,66.785,95.216,66.708,95.574,66.551z"/>
	<path fill="#FFFFFF" d="M109.955,64.199h-6.467c0.03,0.678,0.159,1.216,0.384,1.616c0.222,0.4,0.568,0.687,1.033,0.867
		c0.466,0.177,1.088,0.267,1.869,0.267c0.765,0,1.64-0.122,2.625-0.365v1.908c-1.003,0.249-1.993,0.375-2.971,0.375
		c-1.244,0-2.269-0.19-3.07-0.566c-0.8-0.378-1.399-0.964-1.796-1.758c-0.395-0.795-0.594-1.829-0.594-3.1
		c0-1.167,0.183-2.153,0.547-2.958c0.365-0.804,0.891-1.413,1.581-1.817c0.69-0.404,1.523-0.608,2.5-0.608
		c1.424,0,2.507,0.459,3.246,1.375c0.742,0.917,1.114,2.279,1.114,4.087V64.199z M104.033,60.387
		c-0.351,0.46-0.536,1.229-0.554,2.311h4.128c-0.019-1.081-0.197-1.85-0.531-2.311c-0.337-0.458-0.835-0.688-1.5-0.688
		C104.898,59.699,104.384,59.929,104.033,60.387z"/>
	<path fill="#FFFFFF" d="M116.593,68.675V53.193h2.512v15.482H116.593z"/>
	<path fill="#FFFFFF" d="M127.657,58.458c0.657,0.264,1.148,0.701,1.471,1.307c0.323,0.608,0.484,1.432,0.484,2.473v6.438h-2.079
		l-0.173-1.085h-0.133c-0.313,0.417-0.718,0.729-1.212,0.944c-0.496,0.215-1.042,0.323-1.644,0.323
		c-0.683,0-1.274-0.122-1.773-0.365c-0.498-0.243-0.879-0.586-1.143-1.028c-0.265-0.445-0.398-0.968-0.398-1.567
		c0-0.974,0.332-1.722,0.997-2.252c0.664-0.532,1.714-0.854,3.152-0.966l1.953-0.183v-0.412c0-0.53-0.084-0.95-0.252-1.251
		c-0.171-0.302-0.435-0.519-0.795-0.648c-0.363-0.126-0.847-0.19-1.452-0.19c-0.429,0-0.891,0.037-1.39,0.112
		c-0.498,0.073-0.978,0.182-1.436,0.329v-1.924c0.472-0.148,1-0.261,1.585-0.337c0.585-0.075,1.137-0.115,1.661-0.115
		C126.141,58.059,127,58.192,127.657,58.458z M126.226,66.865c0.348-0.141,0.659-0.365,0.933-0.674V63.97l-1.715,0.154
		c-0.657,0.063-1.139,0.223-1.44,0.473c-0.304,0.252-0.456,0.608-0.456,1.062c0,0.458,0.136,0.809,0.407,1.052
		c0.271,0.243,0.668,0.365,1.193,0.365C125.518,67.076,125.877,67.006,126.226,66.865z"/>
	<path fill="#FFFFFF" d="M136.939,68.675V54.498h2.559v14.178H136.939z"/>
	<path fill="#FFFFFF" d="M142.141,58.224h2.079l0.173,1.101h0.133c0.397-0.409,0.865-0.72,1.403-0.94
		c0.54-0.214,1.118-0.325,1.73-0.325c1.078,0,1.932,0.319,2.556,0.953c0.626,0.636,0.94,1.642,0.94,3.015v6.649h-2.51v-6.507
		c0-0.696-0.147-1.193-0.442-1.487c-0.292-0.299-0.72-0.447-1.284-0.447c-0.421,0-0.835,0.087-1.244,0.265
		c-0.409,0.173-0.75,0.44-1.024,0.791v7.386h-2.512V58.224z"/>
	<path fill="#FFFFFF" d="M157.364,55.503c-0.358,0.325-0.538,0.842-0.538,1.551v1.169h2.933v2.001h-2.933v8.45h-2.492v-8.45h-1.801
		v-2.001h1.801v-1.065c0-1.328,0.375-2.352,1.121-3.072c0.749-0.725,1.826-1.085,3.239-1.085c0.51,0,1.006,0.039,1.485,0.117v1.993
		c-0.436-0.065-0.812-0.098-1.132-0.098C158.284,55.013,157.719,55.176,157.364,55.503z"/>
	<path fill="#FFFFFF" d="M161.745,67.516c-0.858-0.901-1.289-2.25-1.289-4.042c0-1.81,0.423-3.162,1.271-4.065
		c0.846-0.897,2.046-1.35,3.597-1.35c1.553,0,2.75,0.453,3.597,1.35c0.846,0.904,1.27,2.253,1.27,4.056
		c0,1.198-0.196,2.203-0.589,3.008c-0.393,0.804-0.952,1.403-1.681,1.801c-0.728,0.395-1.593,0.594-2.596,0.594
		C163.798,68.867,162.606,68.416,161.745,67.516z M167.072,66.145c0.393-0.523,0.59-1.413,0.59-2.661c0-1.272-0.197-2.17-0.59-2.699
		c-0.393-0.526-0.975-0.79-1.749-0.79c-0.772,0-1.354,0.261-1.747,0.785c-0.394,0.524-0.59,1.413-0.59,2.663
		c0,0.864,0.091,1.551,0.274,2.062c0.18,0.51,0.442,0.875,0.784,1.094c0.341,0.222,0.769,0.333,1.279,0.333
		C166.097,66.931,166.679,66.668,167.072,66.145z"/>
	<path fill="#FFFFFF" d="M172.18,58.224h2.07l0.191,1.358h0.133c0.309-0.491,0.711-0.86,1.214-1.108
		c0.501-0.25,1.05-0.375,1.651-0.375c0.276,0,0.553,0.022,0.835,0.066v2.281c-0.251-0.045-0.576-0.068-0.978-0.068
		c-0.499,0-0.99,0.103-1.471,0.309c-0.482,0.203-0.861,0.493-1.134,0.87v7.119h-2.512V58.224z"/>
	<path fill="#FFFFFF" d="M193.246,59.012c0.602,0.636,0.901,1.642,0.901,3.015v6.649h-2.5V62.16c0-0.688-0.138-1.184-0.417-1.478
		c-0.278-0.299-0.666-0.447-1.165-0.447c-0.358,0-0.709,0.078-1.052,0.23c-0.346,0.154-0.644,0.39-0.891,0.708
		c0.026,0.21,0.037,0.473,0.037,0.786v6.717h-2.462V62.16c0-0.697-0.131-1.191-0.393-1.483c-0.262-0.294-0.641-0.442-1.139-0.442
		c-0.384,0-0.758,0.091-1.12,0.274c-0.365,0.183-0.669,0.451-0.91,0.809v7.358h-2.512V58.224h2.079l0.173,1.11h0.133
		c0.376-0.42,0.816-0.738,1.319-0.954c0.5-0.213,1.048-0.321,1.641-0.321c0.587,0,1.109,0.115,1.563,0.34
		c0.453,0.229,0.816,0.58,1.092,1.059c0.44-0.479,0.934-0.83,1.479-1.059c0.547-0.225,1.108-0.34,1.682-0.34
		C191.824,58.059,192.645,58.378,193.246,59.012z"/>
	<path fill="#FFFFFF" d="M202.605,58.458c0.657,0.264,1.148,0.701,1.471,1.307c0.324,0.608,0.484,1.432,0.484,2.473v6.438h-2.079
		l-0.173-1.085h-0.134c-0.313,0.417-0.717,0.729-1.211,0.944c-0.496,0.215-1.042,0.323-1.644,0.323
		c-0.683,0-1.274-0.122-1.773-0.365c-0.498-0.243-0.879-0.586-1.143-1.028c-0.264-0.445-0.397-0.968-0.397-1.567
		c0-0.974,0.332-1.722,0.996-2.252c0.664-0.532,1.714-0.854,3.153-0.966l1.953-0.183v-0.412c0-0.53-0.084-0.95-0.252-1.251
		c-0.171-0.302-0.435-0.519-0.795-0.648c-0.363-0.126-0.847-0.19-1.452-0.19c-0.428,0-0.892,0.037-1.389,0.112
		c-0.499,0.073-0.978,0.182-1.437,0.329v-1.924c0.473-0.148,1.001-0.261,1.585-0.337c0.585-0.075,1.137-0.115,1.661-0.115
		C201.09,58.059,201.948,58.192,202.605,58.458z M201.174,66.865c0.348-0.141,0.659-0.365,0.933-0.674V63.97l-1.715,0.154
		c-0.656,0.063-1.139,0.223-1.44,0.473c-0.304,0.252-0.457,0.608-0.457,1.062c0,0.458,0.136,0.809,0.407,1.052
		s0.668,0.365,1.193,0.365C200.466,67.076,200.826,67.006,201.174,66.865z"/>
	<path fill="#FFFFFF" d="M207.779,67.53c-0.877-0.891-1.315-2.246-1.315-4.065c0-1.833,0.467-3.194,1.401-4.079
		c0.931-0.885,2.295-1.327,4.088-1.327c0.812,0,1.569,0.082,2.271,0.25v2.012c-0.694-0.148-1.345-0.221-1.943-0.221
		c-0.749,0-1.359,0.113-1.832,0.334c-0.472,0.223-0.823,0.578-1.052,1.069c-0.229,0.486-0.346,1.132-0.346,1.929
		c0,1.208,0.241,2.075,0.725,2.601c0.481,0.526,1.221,0.791,2.217,0.791c0.325,0,0.667-0.031,1.02-0.091
		c0.355-0.061,0.758-0.154,1.211-0.283v2.014c-0.816,0.267-1.686,0.402-2.605,0.402C209.933,68.867,208.653,68.42,207.779,67.53z"/>
	<path fill="#FFFFFF" d="M215.962,56.083c-0.265-0.234-0.398-0.57-0.398-1.012c0-0.439,0.133-0.779,0.398-1.015
		c0.264-0.236,0.662-0.353,1.193-0.353c0.531,0,0.928,0.117,1.193,0.353c0.264,0.236,0.397,0.576,0.397,1.015
		c0,0.442-0.133,0.778-0.397,1.012c-0.265,0.232-0.662,0.349-1.193,0.349C216.624,56.432,216.227,56.315,215.962,56.083z
		 M215.89,68.675V58.224h2.521v10.452H215.89z"/>
	<path fill="#FFFFFF" d="M221.69,67.516c-0.858-0.901-1.289-2.25-1.289-4.042c0-1.81,0.423-3.162,1.27-4.065
		c0.846-0.897,2.046-1.35,3.597-1.35c1.553,0,2.75,0.453,3.597,1.35c0.847,0.904,1.27,2.253,1.27,4.056
		c0,1.198-0.196,2.203-0.589,3.008c-0.393,0.804-0.952,1.403-1.682,1.801c-0.728,0.395-1.592,0.594-2.596,0.594
		C223.744,68.867,222.551,68.416,221.69,67.516z M227.018,66.145c0.393-0.523,0.589-1.413,0.589-2.661
		c0-1.272-0.196-2.17-0.589-2.699c-0.393-0.526-0.976-0.79-1.75-0.79c-0.772,0-1.354,0.261-1.748,0.785
		c-0.393,0.524-0.589,1.413-0.589,2.663c0,0.864,0.091,1.551,0.274,2.062c0.18,0.51,0.442,0.875,0.783,1.094
		c0.342,0.222,0.77,0.333,1.28,0.333C226.042,66.931,226.625,66.668,227.018,66.145z M224.12,56.795l2.107-3.602h2.683l-2.491,3.602
		H224.12z"/>
	<path fill="#FFFFFF" d="M232.128,58.224h2.079l0.173,1.101h0.134c0.397-0.409,0.865-0.72,1.403-0.94
		c0.541-0.214,1.118-0.325,1.73-0.325c1.079,0,1.932,0.319,2.557,0.953c0.626,0.636,0.94,1.642,0.94,3.015v6.649h-2.51v-6.507
		c0-0.696-0.147-1.193-0.442-1.487c-0.292-0.299-0.721-0.447-1.284-0.447c-0.421,0-0.834,0.087-1.245,0.265
		c-0.409,0.173-0.75,0.44-1.024,0.791v7.386h-2.512V58.224z"/>
	<path fill="#FFFFFF" d="M255.35,58.224h2.481l-5.316,14.667h-2.463l1.541-4.215h-0.699l-3.784-10.452h2.645l2.77,8.276
		L255.35,58.224z"/>
	<path fill="#FFFFFF" d="M263.893,68.675V53.193h2.512v15.482H263.893z"/>
	<path fill="#FFFFFF" d="M274.958,58.458c0.657,0.264,1.149,0.701,1.472,1.307c0.323,0.608,0.484,1.432,0.484,2.473v6.438h-2.079
		l-0.173-1.085h-0.133c-0.313,0.417-0.718,0.729-1.211,0.944c-0.496,0.215-1.044,0.323-1.645,0.323
		c-0.683,0-1.275-0.122-1.772-0.365c-0.499-0.243-0.879-0.586-1.144-1.028c-0.264-0.445-0.397-0.968-0.397-1.567
		c0-0.974,0.332-1.722,0.996-2.252c0.664-0.532,1.714-0.854,3.153-0.966l1.953-0.183v-0.412c0-0.53-0.084-0.95-0.252-1.251
		c-0.17-0.302-0.435-0.519-0.795-0.648c-0.362-0.126-0.847-0.19-1.453-0.19c-0.428,0-0.891,0.037-1.389,0.112
		c-0.499,0.073-0.978,0.182-1.436,0.329v-1.924c0.473-0.148,1.001-0.261,1.586-0.337c0.584-0.075,1.136-0.115,1.66-0.115
		C273.442,58.059,274.301,58.192,274.958,58.458z M273.526,66.865c0.349-0.141,0.66-0.365,0.933-0.674V63.97l-1.714,0.154
		c-0.658,0.063-1.14,0.223-1.441,0.473c-0.304,0.252-0.456,0.608-0.456,1.062c0,0.458,0.135,0.809,0.407,1.052
		s0.669,0.365,1.193,0.365C272.818,67.076,273.178,67.006,273.526,66.865z"/>
	<path fill="#FFFFFF" d="M278.999,68.425v-1.877c1.016,0.309,2.07,0.46,3.162,0.46c0.742,0,1.282-0.109,1.623-0.33
		c0.341-0.22,0.512-0.542,0.512-0.963c0-0.339-0.089-0.599-0.267-0.776c-0.18-0.179-0.486-0.314-0.921-0.403l-1.588-0.297
		c-0.966-0.191-1.668-0.529-2.11-1.01c-0.439-0.482-0.659-1.13-0.659-1.939c0-0.652,0.17-1.221,0.512-1.702
		c0.342-0.482,0.86-0.856,1.558-1.125c0.694-0.27,1.558-0.403,2.584-0.403c0.966,0,1.856,0.111,2.673,0.325v1.87
		c-0.824-0.222-1.691-0.335-2.605-0.335c-1.576,0-2.367,0.436-2.367,1.303c0,0.307,0.089,0.55,0.264,0.732
		c0.175,0.182,0.475,0.318,0.896,0.406l1.59,0.297c0.959,0.191,1.663,0.519,2.112,0.982c0.452,0.462,0.676,1.123,0.676,1.979
		c0,0.671-0.173,1.249-0.517,1.733c-0.346,0.487-0.852,0.86-1.519,1.123c-0.668,0.262-1.476,0.393-2.42,0.393
		C281.001,68.867,279.939,68.717,278.999,68.425z"/>
	<path fill="#FFFFFF" d="M294.644,67.118c-1.208-1.16-1.81-2.994-1.81-5.505c0-2.438,0.617-4.267,1.852-5.479
		c1.237-1.213,3.019-1.819,5.351-1.819c1.047,0,2.063,0.123,3.045,0.363v2.126c-0.919-0.234-1.874-0.354-2.862-0.354
		c-1.062,0-1.937,0.171-2.626,0.517c-0.688,0.346-1.207,0.894-1.556,1.642c-0.348,0.753-0.521,1.74-0.521,2.966
		c0,1.254,0.17,2.257,0.517,3.013c0.344,0.757,0.854,1.303,1.528,1.635c0.673,0.332,1.525,0.498,2.554,0.498
		c0.963,0,1.953-0.156,2.968-0.47v2.126c-0.472,0.155-0.979,0.272-1.527,0.356c-0.545,0.084-1.1,0.126-1.664,0.126
		C297.6,68.858,295.851,68.277,294.644,67.118z"/>
	<path fill="#FFFFFF" d="M305.549,67.516c-0.858-0.901-1.289-2.25-1.289-4.042c0-1.81,0.423-3.162,1.27-4.065
		c0.847-0.897,2.046-1.35,3.597-1.35c1.554,0,2.751,0.453,3.597,1.35c0.847,0.904,1.27,2.253,1.27,4.056
		c0,1.198-0.196,2.203-0.589,3.008c-0.393,0.804-0.952,1.403-1.682,1.801c-0.727,0.395-1.593,0.594-2.596,0.594
		C307.602,68.867,306.41,68.416,305.549,67.516z M310.876,66.145c0.393-0.523,0.589-1.413,0.589-2.661
		c0-1.272-0.196-2.17-0.589-2.699c-0.393-0.526-0.975-0.79-1.75-0.79c-0.771,0-1.354,0.261-1.747,0.785
		c-0.393,0.524-0.589,1.413-0.589,2.663c0,0.864,0.091,1.551,0.273,2.062c0.181,0.51,0.442,0.875,0.783,1.094
		c0.342,0.222,0.77,0.333,1.279,0.333C309.901,66.931,310.484,66.668,310.876,66.145z"/>
	<path fill="#FFFFFF" d="M329.61,59.012c0.601,0.636,0.9,1.642,0.9,3.015v6.649h-2.5V62.16c0-0.688-0.138-1.184-0.416-1.478
		c-0.279-0.299-0.667-0.447-1.165-0.447c-0.358,0-0.708,0.078-1.053,0.23c-0.346,0.154-0.643,0.39-0.891,0.708
		c0.026,0.21,0.038,0.473,0.038,0.786v6.717h-2.463V62.16c0-0.697-0.131-1.191-0.393-1.483c-0.262-0.294-0.641-0.442-1.139-0.442
		c-0.384,0-0.758,0.091-1.121,0.274c-0.365,0.183-0.669,0.451-0.91,0.809v7.358h-2.512V58.224h2.08l0.173,1.11h0.133
		c0.376-0.42,0.816-0.738,1.319-0.954c0.5-0.213,1.047-0.321,1.642-0.321c0.587,0,1.108,0.115,1.563,0.34
		c0.454,0.229,0.816,0.58,1.092,1.059c0.439-0.479,0.933-0.83,1.478-1.059c0.547-0.225,1.109-0.34,1.681-0.34
		C328.188,58.059,329.009,58.378,329.61,59.012z"/>
	<path fill="#FFFFFF" d="M333.773,67.903c-0.629-0.636-0.942-1.637-0.942-3.003v-6.677h2.509v6.523c0,0.696,0.145,1.193,0.435,1.489
		c0.29,0.297,0.704,0.447,1.242,0.447c0.403,0,0.805-0.089,1.212-0.269c0.404-0.181,0.741-0.445,1.01-0.795v-7.395h2.51v10.452
		h-2.079l-0.173-1.085h-0.115c-0.409,0.417-0.87,0.729-1.389,0.944c-0.517,0.215-1.066,0.323-1.646,0.323
		C335.261,68.858,334.403,68.54,333.773,67.903z"/>
	<path fill="#FFFFFF" d="M344.249,58.224h2.079l0.173,1.101h0.133c0.397-0.409,0.865-0.72,1.403-0.94
		c0.54-0.214,1.118-0.325,1.731-0.325c1.078,0,1.931,0.319,2.556,0.953c0.626,0.636,0.94,1.642,0.94,3.015v6.649h-2.509v-6.507
		c0-0.696-0.147-1.193-0.442-1.487c-0.292-0.299-0.721-0.447-1.284-0.447c-0.42,0-0.834,0.087-1.244,0.265
		c-0.41,0.173-0.751,0.44-1.025,0.791v7.386h-2.512V58.224z"/>
	<path fill="#FFFFFF" d="M355.739,56.083c-0.264-0.234-0.397-0.57-0.397-1.012c0-0.439,0.133-0.779,0.397-1.015
		c0.265-0.236,0.662-0.353,1.193-0.353c0.531,0,0.928,0.117,1.193,0.353c0.264,0.236,0.397,0.576,0.397,1.015
		c0,0.442-0.134,0.778-0.397,1.012c-0.265,0.232-0.662,0.349-1.193,0.349C356.401,56.432,356.003,56.315,355.739,56.083z
		 M355.667,68.675V58.224h2.521v10.452H355.667z"/>
	<path fill="#FFFFFF" d="M361.493,67.53c-0.877-0.891-1.315-2.246-1.315-4.065c0-1.833,0.468-3.194,1.401-4.079
		c0.931-0.885,2.294-1.327,4.088-1.327c0.811,0,1.569,0.082,2.271,0.25v2.012c-0.694-0.148-1.344-0.221-1.943-0.221
		c-0.749,0-1.359,0.113-1.831,0.334c-0.473,0.223-0.824,0.578-1.053,1.069c-0.229,0.486-0.346,1.132-0.346,1.929
		c0,1.208,0.241,2.075,0.725,2.601c0.482,0.526,1.221,0.791,2.217,0.791c0.325,0,0.667-0.031,1.02-0.091
		c0.355-0.061,0.757-0.154,1.211-0.283v2.014c-0.816,0.267-1.686,0.402-2.605,0.402C363.646,68.867,362.367,68.42,361.493,67.53z"/>
	<path fill="#FFFFFF" d="M375.659,58.458c0.657,0.264,1.148,0.701,1.471,1.307c0.322,0.608,0.484,1.432,0.484,2.473v6.438h-2.079
		l-0.173-1.085h-0.133c-0.314,0.417-0.719,0.729-1.212,0.944c-0.496,0.215-1.043,0.323-1.644,0.323
		c-0.684,0-1.275-0.122-1.773-0.365s-0.879-0.586-1.144-1.028c-0.264-0.445-0.397-0.968-0.397-1.567
		c0-0.974,0.333-1.722,0.997-2.252c0.665-0.532,1.715-0.854,3.153-0.966l1.953-0.183v-0.412c0-0.53-0.084-0.95-0.252-1.251
		c-0.171-0.302-0.436-0.519-0.795-0.648c-0.363-0.126-0.847-0.19-1.453-0.19c-0.427,0-0.89,0.037-1.389,0.112
		c-0.499,0.073-0.977,0.182-1.436,0.329v-1.924c0.472-0.148,1.001-0.261,1.585-0.337c0.584-0.075,1.137-0.115,1.661-0.115
		C374.143,58.059,375.001,58.192,375.659,58.458z M374.227,66.865c0.349-0.141,0.66-0.365,0.933-0.674V63.97l-1.714,0.154
		c-0.657,0.063-1.139,0.223-1.441,0.473c-0.304,0.252-0.456,0.608-0.456,1.062c0,0.458,0.135,0.809,0.407,1.052
		c0.272,0.243,0.669,0.365,1.193,0.365C373.519,67.076,373.879,67.006,374.227,66.865z"/>
	<path fill="#FFFFFF" d="M380.832,67.53c-0.876-0.891-1.314-2.246-1.314-4.065c0-1.833,0.468-3.194,1.401-4.079
		c0.931-0.885,2.294-1.327,4.088-1.327c0.811,0,1.569,0.082,2.271,0.25v2.012c-0.695-0.148-1.345-0.221-1.944-0.221
		c-0.749,0-1.359,0.113-1.831,0.334c-0.472,0.223-0.824,0.578-1.053,1.069c-0.229,0.486-0.346,1.132-0.346,1.929
		c0,1.208,0.241,2.075,0.725,2.601c0.482,0.526,1.221,0.791,2.217,0.791c0.325,0,0.667-0.031,1.02-0.091
		c0.355-0.061,0.758-0.154,1.212-0.283v2.014c-0.816,0.267-1.687,0.402-2.605,0.402C382.986,68.867,381.707,68.42,380.832,67.53z"/>
	<path fill="#FFFFFF" d="M389.016,56.083c-0.265-0.234-0.398-0.57-0.398-1.012c0-0.439,0.133-0.779,0.398-1.015
		c0.264-0.236,0.661-0.353,1.192-0.353c0.531,0,0.929,0.117,1.192,0.353c0.265,0.236,0.398,0.576,0.398,1.015
		c0,0.442-0.133,0.778-0.398,1.012c-0.264,0.232-0.662,0.349-1.192,0.349C389.677,56.432,389.279,56.315,389.016,56.083z
		 M388.943,68.675V58.224h2.521v10.452H388.943z"/>
	<path fill="#FFFFFF" d="M394.743,67.516c-0.858-0.901-1.288-2.25-1.288-4.042c0-1.81,0.423-3.162,1.269-4.065
		c0.847-0.897,2.047-1.35,3.597-1.35c1.553,0,2.75,0.453,3.598,1.35c0.847,0.904,1.27,2.253,1.27,4.056
		c0,1.198-0.196,2.203-0.589,3.008c-0.393,0.804-0.952,1.403-1.682,1.801c-0.727,0.395-1.593,0.594-2.596,0.594
		C396.796,68.867,395.604,68.416,394.743,67.516z M400.07,66.145c0.393-0.523,0.59-1.413,0.59-2.661c0-1.272-0.197-2.17-0.59-2.699
		c-0.393-0.526-0.976-0.79-1.75-0.79c-0.771,0-1.354,0.261-1.747,0.785c-0.393,0.524-0.589,1.413-0.589,2.663
		c0,0.864,0.091,1.551,0.274,2.062c0.18,0.51,0.442,0.875,0.783,1.094c0.342,0.222,0.77,0.333,1.279,0.333
		C399.095,66.931,399.678,66.668,400.07,66.145z"/>
	<path fill="#FFFFFF" d="M405.179,58.224h2.079l0.173,1.101h0.133c0.398-0.409,0.866-0.72,1.403-0.94
		c0.54-0.214,1.118-0.325,1.73-0.325c1.079,0,1.932,0.319,2.557,0.953c0.627,0.636,0.94,1.642,0.94,3.015v6.649h-2.509v-6.507
		c0-0.696-0.147-1.193-0.442-1.487c-0.292-0.299-0.721-0.447-1.284-0.447c-0.421,0-0.835,0.087-1.244,0.265
		c-0.409,0.173-0.751,0.44-1.025,0.791v7.386h-2.511V58.224z"/>
	<path fill="#FFFFFF" d="M425.086,64.199h-6.466c0.03,0.678,0.159,1.216,0.383,1.616c0.222,0.4,0.568,0.687,1.034,0.867
		c0.465,0.177,1.087,0.267,1.868,0.267c0.765,0,1.64-0.122,2.624-0.365v1.908c-1.003,0.249-1.992,0.375-2.97,0.375
		c-1.244,0-2.268-0.19-3.071-0.566c-0.799-0.378-1.398-0.964-1.796-1.758c-0.395-0.795-0.594-1.829-0.594-3.1
		c0-1.167,0.183-2.153,0.547-2.958c0.365-0.804,0.891-1.413,1.582-1.817c0.689-0.404,1.522-0.608,2.499-0.608
		c1.425,0,2.508,0.459,3.247,1.375c0.741,0.917,1.113,2.279,1.113,4.087V64.199z M419.165,60.387
		c-0.351,0.46-0.536,1.229-0.554,2.311h4.127c-0.019-1.081-0.196-1.85-0.531-2.311c-0.336-0.458-0.835-0.688-1.499-0.688
		C420.029,59.699,419.515,59.929,419.165,60.387z"/>
	<path fill="#FFFFFF" d="M426.637,68.425v-1.877c1.015,0.309,2.069,0.46,3.162,0.46c0.741,0,1.282-0.109,1.623-0.33
		c0.342-0.22,0.513-0.542,0.513-0.963c0-0.339-0.09-0.599-0.267-0.776c-0.181-0.179-0.487-0.314-0.922-0.403l-1.587-0.297
		c-0.966-0.191-1.668-0.529-2.11-1.01c-0.439-0.482-0.659-1.13-0.659-1.939c0-0.652,0.171-1.221,0.512-1.702
		c0.342-0.482,0.86-0.856,1.558-1.125c0.694-0.27,1.557-0.403,2.584-0.403c0.966,0,1.857,0.111,2.673,0.325v1.87
		c-0.823-0.222-1.69-0.335-2.605-0.335c-1.577,0-2.367,0.436-2.367,1.303c0,0.307,0.089,0.55,0.264,0.732
		c0.175,0.182,0.475,0.318,0.895,0.406l1.591,0.297c0.959,0.191,1.663,0.519,2.112,0.982c0.451,0.462,0.676,1.123,0.676,1.979
		c0,0.671-0.173,1.249-0.517,1.733c-0.346,0.487-0.851,0.86-1.518,1.123c-0.669,0.262-1.476,0.393-2.421,0.393
		C428.639,68.867,427.577,68.717,426.637,68.425z"/>
	<path fill="#FFFFFF" d="M436.116,68.395c-0.304-0.28-0.456-0.66-0.456-1.136c0-0.482,0.149-0.861,0.451-1.146
		c0.299-0.286,0.706-0.426,1.216-0.426c0.51,0,0.917,0.144,1.216,0.431c0.302,0.285,0.452,0.667,0.452,1.142
		c0,0.473-0.152,0.849-0.457,1.132c-0.304,0.285-0.706,0.428-1.211,0.428C436.822,68.818,436.42,68.677,436.116,68.395z"/>
</g>
<g>
	<path fill="#FFFFFF" d="M1484.486,45.596V31.734c0.588-0.115,1.205-0.206,1.85-0.274c0.646-0.065,1.263-0.098,1.857-0.098
		c2.351,0,4.117,0.594,5.297,1.787c1.184,1.189,1.773,3.006,1.773,5.445c0,2.469-0.615,4.289-1.843,5.454
		c-1.231,1.167-3.088,1.75-5.571,1.75C1486.791,45.797,1485.668,45.731,1484.486,45.596z M1491.23,43.863
		c0.813-0.404,1.421-1.036,1.825-1.901c0.405-0.866,0.607-1.987,0.607-3.368c0-2.044-0.443-3.539-1.331-4.484
		c-0.888-0.944-2.252-1.417-4.089-1.417c-0.672,0-1.406,0.062-2.204,0.181v11.469c0.639,0.082,1.346,0.124,2.117,0.124
		C1489.396,44.467,1490.42,44.266,1491.23,43.863z"/>
	<path fill="#FFFFFF" d="M1497.695,32.785c-0.184-0.168-0.278-0.408-0.278-0.716c0-0.303,0.097-0.544,0.283-0.715
		c0.189-0.172,0.451-0.26,0.791-0.26c0.339,0,0.601,0.087,0.786,0.26c0.185,0.171,0.278,0.412,0.278,0.715
		c0,0.309-0.094,0.548-0.278,0.716c-0.186,0.168-0.447,0.253-0.786,0.253C1498.147,33.038,1497.881,32.953,1497.695,32.785z
		 M1497.724,45.684V35.29h1.534v10.394H1497.724z"/>
	<path fill="#FFFFFF" d="M1502.158,35.29h1.284l0.126,1.389h0.097c0.343-0.479,0.785-0.85,1.325-1.106
		c0.541-0.26,1.108-0.389,1.71-0.389c0.281,0,0.559,0.023,0.833,0.075v1.43c-0.274-0.045-0.573-0.068-0.901-0.068
		c-0.542,0-1.086,0.126-1.632,0.379c-0.548,0.252-0.982,0.615-1.309,1.087v7.598h-1.533V35.29z"/>
	<path fill="#FFFFFF" d="M1516.757,40.999h-6.655c0.022,0.875,0.169,1.576,0.435,2.106c0.264,0.532,0.651,0.915,1.164,1.149
		c0.51,0.239,1.162,0.355,1.953,0.355c0.754,0,1.616-0.14,2.586-0.421v1.254c-0.944,0.28-1.868,0.423-2.769,0.423
		c-1.653,0-2.888-0.428-3.702-1.284c-0.814-0.855-1.221-2.221-1.221-4.099c0-1.782,0.369-3.121,1.105-4.016
		c0.74-0.894,1.771-1.341,3.099-1.341c1.297,0,2.289,0.447,2.976,1.335c0.685,0.893,1.029,2.246,1.029,4.06V40.999z M1510.81,37.109
		c-0.446,0.575-0.686,1.52-0.708,2.836h5.182c-0.025-1.323-0.252-2.268-0.675-2.841c-0.427-0.572-1.051-0.859-1.874-0.859
		C1511.897,36.245,1511.257,36.536,1510.81,37.109z"/>
	<path fill="#FFFFFF" d="M1519.585,44.563c-0.779-0.87-1.169-2.227-1.169-4.071c0-1.846,0.42-3.202,1.26-4.067
		c0.84-0.866,2.078-1.299,3.721-1.299c0.772,0,1.484,0.091,2.135,0.269v1.303c-0.683-0.173-1.337-0.261-1.961-0.261
		c-0.818,0-1.487,0.132-2.007,0.394c-0.521,0.262-0.912,0.687-1.169,1.275c-0.26,0.586-0.39,1.37-0.39,2.345
		c0,0.992,0.12,1.787,0.361,2.39c0.238,0.603,0.594,1.043,1.066,1.314c0.472,0.272,1.072,0.407,1.801,0.407
		c0.671,0,1.438-0.145,2.298-0.43v1.3c-0.809,0.29-1.65,0.432-2.519,0.432C1521.506,45.865,1520.363,45.43,1519.585,44.563z"/>
	<path fill="#FFFFFF" d="M1527.967,44.563c-0.779-0.87-1.17-2.227-1.17-4.071c0-1.846,0.422-3.202,1.261-4.067
		c0.84-0.866,2.08-1.299,3.722-1.299c0.771,0,1.485,0.091,2.135,0.269v1.303c-0.683-0.173-1.338-0.261-1.962-0.261
		c-0.819,0-1.488,0.132-2.007,0.394c-0.521,0.262-0.912,0.687-1.17,1.275c-0.26,0.586-0.388,1.37-0.388,2.345
		c0,0.992,0.119,1.787,0.36,2.39c0.238,0.603,0.594,1.043,1.066,1.314c0.473,0.272,1.074,0.407,1.801,0.407
		c0.672,0,1.438-0.145,2.299-0.43v1.3c-0.809,0.29-1.651,0.432-2.519,0.432C1529.89,45.865,1528.746,45.43,1527.967,44.563z"/>
	<path fill="#FFFFFF" d="M1535.696,32.785c-0.185-0.168-0.278-0.408-0.278-0.716c0-0.303,0.096-0.544,0.282-0.715
		c0.19-0.172,0.452-0.26,0.791-0.26c0.34,0,0.602,0.087,0.785,0.26c0.186,0.171,0.279,0.412,0.279,0.715
		c0,0.309-0.094,0.548-0.279,0.716c-0.184,0.168-0.445,0.253-0.785,0.253C1536.147,33.038,1535.882,32.953,1535.696,32.785z
		 M1535.725,45.684V35.29h1.533v10.394H1535.725z"/>
	<path fill="#FFFFFF" d="M1540.778,44.548c-0.776-0.879-1.164-2.227-1.164-4.048c0-1.82,0.386-3.169,1.16-4.053
		c0.771-0.88,1.857-1.322,3.255-1.322c1.405,0,2.496,0.437,3.267,1.312c0.772,0.875,1.161,2.228,1.161,4.054
		c0,1.812-0.391,3.164-1.17,4.048c-0.779,0.884-1.863,1.326-3.258,1.326C1542.639,45.865,1541.553,45.426,1540.778,44.548z
		 M1546.158,43.677c0.484-0.63,0.727-1.682,0.727-3.156c0-1.501-0.242-2.568-0.727-3.197c-0.488-0.629-1.196-0.942-2.129-0.942
		c-0.926,0-1.632,0.313-2.121,0.938c-0.489,0.626-0.732,1.677-0.732,3.152c0,1.495,0.241,2.559,0.728,3.196
		c0.484,0.633,1.195,0.951,2.126,0.951C1544.962,44.619,1545.67,44.305,1546.158,43.677z M1543.321,33.678l2.069-3.476h1.658
		l-2.311,3.476H1543.321z"/>
	<path fill="#FFFFFF" d="M1550.803,35.29h1.293l0.107,1.177h0.105c0.426-0.433,0.92-0.766,1.479-0.997
		c0.559-0.229,1.155-0.344,1.786-0.344c1.04,0,1.856,0.292,2.448,0.877c0.59,0.584,0.888,1.521,0.888,2.811v6.87h-1.534v-6.802
		c0-0.849-0.188-1.459-0.561-1.831c-0.372-0.369-0.911-0.555-1.612-0.555c-0.521,0-1.037,0.111-1.554,0.335s-0.954,0.57-1.313,1.045
		v7.808h-1.533V35.29z"/>
	<path fill="#FFFFFF" d="M1567.816,45.338c-0.612-0.351-1.096-0.911-1.451-1.684c-0.354-0.767-0.532-1.753-0.532-2.954
		c0-1.859,0.442-3.253,1.326-4.182c0.885-0.928,2.194-1.394,3.925-1.394c0.499,0,1.06,0.049,1.687,0.143v-5.066h1.531v15.481h-1.312
		l-0.105-1.13h-0.096c-0.327,0.402-0.734,0.721-1.228,0.959c-0.49,0.234-1.036,0.353-1.638,0.353
		C1569.132,45.865,1568.431,45.689,1567.816,45.338z M1571.667,44.221c0.441-0.212,0.809-0.534,1.104-0.963v-6.694
		c-0.244-0.052-0.52-0.094-0.825-0.131c-0.307-0.033-0.604-0.051-0.892-0.051c-1.232,0-2.148,0.33-2.753,0.992
		c-0.604,0.66-0.904,1.721-0.904,3.186c0,1.45,0.25,2.474,0.75,3.078c0.503,0.604,1.212,0.907,2.134,0.907
		C1570.764,44.544,1571.227,44.437,1571.667,44.221z"/>
	<path fill="#FFFFFF" d="M1584.857,40.999h-6.656c0.023,0.875,0.17,1.576,0.436,2.106c0.264,0.532,0.651,0.915,1.164,1.149
		c0.51,0.239,1.162,0.355,1.953,0.355c0.754,0,1.616-0.14,2.587-0.421v1.254c-0.945,0.28-1.869,0.423-2.77,0.423
		c-1.653,0-2.888-0.428-3.702-1.284c-0.813-0.855-1.221-2.221-1.221-4.099c0-1.782,0.369-3.121,1.105-4.016
		c0.74-0.894,1.771-1.341,3.099-1.341c1.297,0,2.288,0.447,2.976,1.335c0.685,0.893,1.029,2.246,1.029,4.06V40.999z M1578.91,37.109
		c-0.446,0.575-0.686,1.52-0.709,2.836h5.183c-0.025-1.323-0.252-2.268-0.675-2.841c-0.427-0.572-1.051-0.859-1.875-0.859
		C1579.998,36.245,1579.356,36.536,1578.91,37.109z"/>
	<path fill="#FFFFFF" d="M1592.955,45.718c-0.609-0.101-1.185-0.243-1.727-0.429V43.95c0.575,0.196,1.165,0.344,1.768,0.439
		c0.603,0.096,1.186,0.146,1.75,0.146c2.304,0,3.457-0.865,3.457-2.597c0-0.48-0.095-0.879-0.283-1.202
		c-0.188-0.323-0.484-0.594-0.892-0.813c-0.405-0.223-0.957-0.422-1.65-0.6l-0.768-0.204c-1.214-0.311-2.116-0.778-2.71-1.403
		c-0.595-0.622-0.893-1.442-0.893-2.458c0-0.816,0.189-1.52,0.571-2.109c0.378-0.592,0.944-1.043,1.695-1.356
		c0.751-0.313,1.678-0.47,2.783-0.47c0.55,0,1.092,0.037,1.628,0.109c0.536,0.075,1.023,0.183,1.467,0.323v1.339
		c-0.96-0.292-1.975-0.442-3.048-0.442c-1.192,0-2.079,0.216-2.656,0.648c-0.58,0.431-0.868,1.052-0.868,1.864
		c0,0.465,0.084,0.858,0.252,1.178c0.171,0.318,0.442,0.59,0.821,0.81c0.376,0.22,0.892,0.416,1.542,0.589l0.767,0.192
		c1.314,0.333,2.28,0.809,2.894,1.436c0.611,0.626,0.918,1.45,0.918,2.471c0,0.851-0.198,1.576-0.593,2.175
		c-0.396,0.601-0.972,1.06-1.725,1.375c-0.754,0.315-1.665,0.474-2.731,0.474C1594.152,45.865,1593.561,45.817,1592.955,45.718z"/>
	<path fill="#FFFFFF" d="M1601.899,32.785c-0.185-0.168-0.277-0.408-0.277-0.716c0-0.303,0.096-0.544,0.283-0.715
		c0.188-0.172,0.45-0.26,0.79-0.26c0.339,0,0.602,0.087,0.785,0.26c0.186,0.171,0.279,0.412,0.279,0.715
		c0,0.309-0.094,0.548-0.279,0.716c-0.184,0.168-0.446,0.253-0.785,0.253C1602.352,33.038,1602.084,32.953,1601.899,32.785z
		 M1601.929,45.684V35.29h1.534v10.394H1601.929z"/>
	<path fill="#FFFFFF" d="M1605.96,45.442v-1.235c0.951,0.287,1.913,0.43,2.884,0.43c1.713,0,2.568-0.579,2.568-1.742
		c0-0.473-0.124-0.834-0.369-1.083c-0.246-0.248-0.654-0.437-1.231-0.566l-1.407-0.285c-0.927-0.199-1.598-0.528-2.012-0.986
		c-0.416-0.462-0.622-1.074-0.622-1.839c0-0.594,0.15-1.118,0.449-1.571c0.299-0.455,0.757-0.807,1.375-1.06
		c0.615-0.253,1.378-0.379,2.285-0.379c0.835,0,1.653,0.103,2.451,0.307v1.247c-0.422-0.114-0.823-0.2-1.207-0.25
		c-0.383-0.051-0.785-0.075-1.207-0.075c-0.938,0-1.62,0.157-2.044,0.473c-0.425,0.318-0.639,0.739-0.639,1.269
		c0,0.429,0.12,0.775,0.356,1.037c0.235,0.261,0.633,0.453,1.197,0.572l1.407,0.289c0.945,0.196,1.63,0.523,2.054,0.977
		c0.426,0.454,0.638,1.068,0.638,1.848c0,0.959-0.348,1.708-1.045,2.243c-0.693,0.536-1.695,0.805-2.998,0.805
		C1607.792,45.865,1606.83,45.723,1605.96,45.442z"/>
	<path fill="#FFFFFF" d="M1620.56,44.38v1.294c-0.543,0.128-1.076,0.191-1.601,0.191c-2.24,0-3.361-1.148-3.361-3.449v-5.861h-1.964
		V35.29h1.964l0.248-3.784h1.284v3.784h3.267v1.266h-3.267v5.622c0,0.849,0.173,1.454,0.521,1.815
		c0.349,0.36,0.894,0.542,1.635,0.542C1619.649,44.535,1620.075,44.483,1620.56,44.38z"/>
	<path fill="#FFFFFF" d="M1629.822,40.999h-6.655c0.022,0.875,0.17,1.576,0.435,2.106c0.264,0.532,0.652,0.915,1.164,1.149
		c0.512,0.239,1.163,0.355,1.954,0.355c0.752,0,1.616-0.14,2.586-0.421v1.254c-0.944,0.28-1.868,0.423-2.769,0.423
		c-1.655,0-2.89-0.428-3.703-1.284c-0.813-0.855-1.221-2.221-1.221-4.099c0-1.782,0.37-3.121,1.106-4.016
		c0.739-0.894,1.771-1.341,3.099-1.341c1.296,0,2.288,0.447,2.976,1.335c0.685,0.893,1.028,2.246,1.028,4.06V40.999z
		 M1623.876,37.109c-0.447,0.575-0.687,1.52-0.709,2.836h5.182c-0.025-1.323-0.252-2.268-0.676-2.841
		c-0.425-0.572-1.051-0.859-1.874-0.859C1624.963,36.245,1624.322,36.536,1623.876,37.109z"/>
	<path fill="#FFFFFF" d="M1644.64,36.002c0.559,0.584,0.836,1.518,0.836,2.802v6.879h-1.532V38.87c0-0.842-0.173-1.447-0.517-1.819
		c-0.346-0.369-0.827-0.555-1.447-0.555c-0.446,0-0.896,0.106-1.345,0.321c-0.451,0.215-0.835,0.552-1.155,1.01
		c0.039,0.289,0.059,0.602,0.059,0.94v6.917h-1.514V38.87c0-0.846-0.166-1.455-0.498-1.825c-0.331-0.364-0.805-0.55-1.419-0.55
		c-0.466,0-0.929,0.12-1.391,0.354c-0.458,0.238-0.844,0.594-1.156,1.074v7.76h-1.535V35.29h1.294l0.107,1.177h0.105
		c0.396-0.44,0.849-0.772,1.358-1.001c0.513-0.224,1.059-0.339,1.649-0.339c1.258,0,2.123,0.499,2.595,1.495
		c0.455-0.517,0.957-0.896,1.514-1.134c0.555-0.241,1.12-0.36,1.696-0.36C1643.315,35.125,1644.08,35.418,1644.64,36.002z"/>
	<path fill="#FFFFFF" d="M1653.583,35.481c0.579,0.236,1.018,0.628,1.311,1.176c0.295,0.552,0.441,1.288,0.441,2.212v6.813h-1.282
		l-0.117-1.158h-0.105c-0.331,0.42-0.76,0.749-1.288,0.979c-0.526,0.234-1.098,0.349-1.71,0.349c-0.646,0-1.203-0.112-1.675-0.336
		c-0.475-0.23-0.838-0.557-1.087-0.982c-0.253-0.431-0.38-0.933-0.38-1.516c0-0.919,0.3-1.627,0.901-2.131
		c0.599-0.502,1.555-0.815,2.864-0.943l2.374-0.259v-0.891c0-0.619-0.096-1.104-0.293-1.454c-0.193-0.354-0.483-0.599-0.869-0.745
		c-0.389-0.145-0.894-0.214-1.52-0.214c-0.428,0-0.885,0.037-1.374,0.114c-0.488,0.078-0.966,0.195-1.434,0.354v-1.264
		c0.429-0.146,0.914-0.261,1.458-0.341c0.542-0.079,1.059-0.119,1.552-0.119C1652.256,35.125,1653,35.245,1653.583,35.481z
		 M1652.633,44.361c0.454-0.206,0.854-0.524,1.197-0.959v-2.68l-2.269,0.248c-0.812,0.084-1.401,0.281-1.769,0.594
		c-0.366,0.314-0.552,0.749-0.552,1.313c0,0.586,0.167,1.032,0.499,1.335c0.331,0.304,0.825,0.456,1.476,0.456
		C1651.706,44.668,1652.179,44.564,1652.633,44.361z"/>
	<path fill="#FFFFFF" d="M1657.71,45.442v-1.235c0.952,0.287,1.913,0.43,2.884,0.43c1.712,0,2.568-0.579,2.568-1.742
		c0-0.473-0.124-0.834-0.37-1.083c-0.245-0.248-0.654-0.437-1.229-0.566l-1.408-0.285c-0.926-0.199-1.598-0.528-2.011-0.986
		c-0.417-0.462-0.623-1.074-0.623-1.839c0-0.594,0.149-1.118,0.449-1.571c0.3-0.455,0.758-0.807,1.376-1.06
		c0.615-0.253,1.376-0.379,2.284-0.379c0.835,0,1.653,0.103,2.451,0.307v1.247c-0.421-0.114-0.823-0.2-1.207-0.25
		c-0.384-0.051-0.785-0.075-1.206-0.075c-0.938,0-1.621,0.157-2.045,0.473c-0.426,0.318-0.639,0.739-0.639,1.269
		c0,0.429,0.12,0.775,0.355,1.037c0.237,0.261,0.634,0.453,1.198,0.572l1.408,0.289c0.943,0.196,1.629,0.523,2.053,0.977
		c0.426,0.454,0.639,1.068,0.639,1.848c0,0.959-0.349,1.708-1.046,2.243c-0.695,0.536-1.695,0.805-2.998,0.805
		C1659.541,45.865,1658.58,45.723,1657.71,45.442z"/>
	<path fill="#FFFFFF" d="M1493.923,68.675l-1.617-4.589h-5.988l-1.62,4.589h-1.561l5.088-14.178h2.193l5.087,14.178H1493.923z
		 M1486.776,62.772h5.059l-2.528-7.148L1486.776,62.772z M1488.617,53.27l1.704-2.721h1.656l-1.952,2.721H1488.617z"/>
	<path fill="#FFFFFF" d="M1497.226,58.282h1.285l0.126,1.39h0.095c0.344-0.482,0.786-0.849,1.326-1.108
		c0.541-0.257,1.108-0.389,1.71-0.389c0.281,0,0.559,0.025,0.832,0.077v1.43c-0.273-0.047-0.571-0.07-0.9-0.07
		c-0.542,0-1.086,0.126-1.632,0.378c-0.547,0.252-0.982,0.617-1.307,1.09v7.596h-1.535V58.282z"/>
	<path fill="#FFFFFF" d="M1511.827,63.989h-6.657c0.023,0.875,0.171,1.579,0.436,2.109c0.264,0.528,0.653,0.912,1.165,1.149
		c0.51,0.236,1.162,0.353,1.952,0.353c0.754,0,1.617-0.14,2.587-0.422v1.256c-0.944,0.281-1.868,0.424-2.769,0.424
		c-1.654,0-2.889-0.431-3.702-1.286c-0.813-0.856-1.222-2.222-1.222-4.098c0-1.783,0.371-3.12,1.106-4.016
		c0.739-0.893,1.771-1.34,3.1-1.34c1.295,0,2.286,0.445,2.975,1.336c0.686,0.891,1.029,2.243,1.029,4.058V63.989z M1505.88,60.101
		c-0.447,0.575-0.687,1.521-0.71,2.834h5.184c-0.025-1.323-0.252-2.269-0.676-2.838c-0.426-0.574-1.051-0.859-1.874-0.859
		C1506.967,59.238,1506.326,59.526,1505.88,60.101z"/>
	<path fill="#FFFFFF" d="M1519.358,58.474c0.579,0.234,1.018,0.626,1.312,1.176s0.44,1.289,0.44,2.213v6.813h-1.282l-0.117-1.16
		h-0.105c-0.333,0.42-0.76,0.749-1.288,0.982c-0.526,0.234-1.098,0.349-1.71,0.349c-0.646,0-1.203-0.115-1.675-0.34
		c-0.475-0.227-0.838-0.554-1.087-0.982c-0.253-0.428-0.38-0.931-0.38-1.514c0-0.919,0.3-1.63,0.901-2.13
		c0.599-0.502,1.555-0.819,2.864-0.946l2.374-0.256v-0.895c0-0.617-0.096-1.103-0.293-1.454c-0.193-0.351-0.483-0.599-0.869-0.744
		c-0.389-0.143-0.894-0.216-1.521-0.216c-0.427,0-0.884,0.037-1.373,0.117c-0.488,0.075-0.966,0.194-1.434,0.353v-1.265
		c0.428-0.145,0.915-0.259,1.458-0.338c0.542-0.08,1.059-0.12,1.552-0.12C1518.032,58.118,1518.775,58.234,1519.358,58.474z
		 M1518.408,67.352c0.454-0.203,0.854-0.524,1.197-0.959v-2.68l-2.269,0.248c-0.812,0.084-1.4,0.281-1.769,0.594
		c-0.366,0.313-0.552,0.751-0.552,1.314c0,0.584,0.167,1.031,0.499,1.335c0.331,0.303,0.825,0.457,1.476,0.457
		C1517.482,67.66,1517.954,67.558,1518.408,67.352z"/>
	<path fill="#FFFFFF" d="M1530.011,68.33c-0.613-0.352-1.097-0.912-1.452-1.682c-0.354-0.77-0.53-1.755-0.53-2.955
		c0-1.859,0.441-3.253,1.325-4.181c0.884-0.931,2.193-1.395,3.925-1.395c0.498,0,1.06,0.047,1.687,0.144v-5.068h1.531v15.482h-1.313
		l-0.104-1.132h-0.097c-0.327,0.403-0.734,0.723-1.228,0.958c-0.49,0.237-1.035,0.356-1.636,0.356
		C1531.325,68.858,1530.624,68.681,1530.011,68.33z M1533.86,67.214c0.442-0.214,0.81-0.537,1.104-0.964v-6.695
		c-0.244-0.051-0.52-0.093-0.826-0.129c-0.307-0.035-0.604-0.054-0.892-0.054c-1.232,0-2.148,0.333-2.752,0.992
		c-0.604,0.661-0.905,1.724-0.905,3.185c0,1.45,0.25,2.477,0.75,3.081c0.503,0.603,1.213,0.905,2.134,0.905
		C1532.957,67.534,1533.421,67.426,1533.86,67.214z"/>
	<path fill="#FFFFFF" d="M1547.051,63.989h-6.656c0.023,0.875,0.172,1.579,0.436,2.109c0.264,0.528,0.652,0.912,1.164,1.149
		c0.511,0.236,1.163,0.353,1.954,0.353c0.753,0,1.615-0.14,2.586-0.422v1.256c-0.944,0.281-1.869,0.424-2.769,0.424
		c-1.654,0-2.889-0.431-3.702-1.286c-0.814-0.856-1.222-2.222-1.222-4.098c0-1.783,0.369-3.12,1.106-4.016
		c0.739-0.893,1.771-1.34,3.1-1.34c1.295,0,2.286,0.445,2.975,1.336c0.686,0.891,1.028,2.243,1.028,4.058V63.989z M1541.104,60.101
		c-0.446,0.575-0.686,1.521-0.709,2.834h5.183c-0.025-1.323-0.252-2.269-0.675-2.838c-0.427-0.574-1.051-0.859-1.875-0.859
		C1542.191,59.238,1541.55,59.526,1541.104,60.101z"/>
	<path fill="#FFFFFF" d="M1554.112,68.675V54.498h1.552v14.178H1554.112z"/>
	<path fill="#FFFFFF" d="M1560.34,72.96c-0.545-0.079-1.041-0.196-1.494-0.349v-1.284c1.041,0.327,2.032,0.489,2.979,0.489
		c0.766,0,1.388-0.105,1.867-0.316c0.48-0.21,0.838-0.551,1.073-1.024c0.236-0.473,0.356-1.106,0.356-1.899v-1.005h-0.098
		c-0.326,0.384-0.733,0.687-1.227,0.907c-0.492,0.221-1.041,0.33-1.646,0.33c-0.754,0-1.43-0.175-2.021-0.522
		c-0.595-0.348-1.069-0.904-1.42-1.667c-0.351-0.764-0.527-1.742-0.527-2.935c0-1.852,0.443-3.241,1.327-4.167
		c0.885-0.926,2.197-1.394,3.943-1.399c0.535,0,1.087,0.043,1.65,0.124c0.567,0.083,1.084,0.199,1.548,0.345v9.752
		c0,1.122-0.174,2.035-0.525,2.731c-0.353,0.695-0.877,1.205-1.571,1.528c-0.697,0.32-1.582,0.484-2.655,0.484
		C1561.402,73.082,1560.882,73.04,1560.34,72.96z M1564.008,67.192c0.446-0.201,0.817-0.499,1.113-0.893v-6.717
		c-0.576-0.141-1.175-0.21-1.792-0.21c-1.195,0-2.091,0.333-2.687,0.996c-0.6,0.665-0.896,1.722-0.896,3.172
		c0,1.45,0.25,2.472,0.751,3.066c0.502,0.592,1.206,0.892,2.111,0.892C1563.096,67.497,1563.561,67.394,1564.008,67.192z"/>
	<path fill="#FFFFFF" d="M1577.207,63.989h-6.656c0.023,0.875,0.171,1.579,0.435,2.109c0.265,0.528,0.653,0.912,1.165,1.149
		c0.51,0.236,1.163,0.353,1.952,0.353c0.754,0,1.616-0.14,2.589-0.422v1.256c-0.945,0.281-1.869,0.424-2.77,0.424
		c-1.654,0-2.89-0.431-3.703-1.286c-0.813-0.856-1.221-2.222-1.221-4.098c0-1.783,0.369-3.12,1.106-4.016
		c0.738-0.893,1.771-1.34,3.099-1.34c1.296,0,2.288,0.445,2.975,1.336c0.686,0.891,1.029,2.243,1.029,4.058V63.989z M1571.26,60.101
		c-0.446,0.575-0.686,1.521-0.709,2.834h5.183c-0.025-1.323-0.252-2.269-0.676-2.838c-0.425-0.574-1.05-0.859-1.873-0.859
		C1572.348,59.238,1571.707,59.526,1571.26,60.101z"/>
	<path fill="#FFFFFF" d="M1579.41,58.282h1.293l0.108,1.176h0.105c0.425-0.433,0.919-0.764,1.478-0.996
		c0.56-0.23,1.156-0.345,1.788-0.345c1.039,0,1.855,0.291,2.447,0.875c0.59,0.585,0.888,1.523,0.888,2.812v6.871h-1.535v-6.801
		c0-0.852-0.188-1.459-0.56-1.832c-0.374-0.371-0.911-0.554-1.613-0.554c-0.519,0-1.035,0.109-1.553,0.334
		c-0.517,0.223-0.955,0.57-1.313,1.045v7.807h-1.534V58.282z"/>
	<path fill="#FFFFFF" d="M1590.273,55.774c-0.185-0.168-0.277-0.407-0.277-0.713c0-0.306,0.095-0.545,0.282-0.718
		c0.19-0.173,0.451-0.257,0.791-0.257c0.339,0,0.602,0.084,0.785,0.257c0.186,0.172,0.279,0.412,0.279,0.718
		c0,0.306-0.094,0.544-0.279,0.713c-0.184,0.169-0.446,0.255-0.785,0.255C1590.726,56.03,1590.459,55.944,1590.273,55.774z
		 M1590.303,68.675V58.282h1.533v10.394H1590.303z"/>
	<path fill="#FFFFFF" d="M1602.4,63.989h-6.656c0.024,0.875,0.171,1.579,0.436,2.109c0.265,0.528,0.651,0.912,1.165,1.149
		c0.509,0.236,1.161,0.353,1.952,0.353c0.753,0,1.616-0.14,2.586-0.422v1.256c-0.943,0.281-1.867,0.424-2.769,0.424
		c-1.652,0-2.889-0.431-3.702-1.286c-0.814-0.856-1.222-2.222-1.222-4.098c0-1.783,0.371-3.12,1.107-4.016
		c0.739-0.893,1.771-1.34,3.099-1.34c1.296,0,2.287,0.445,2.975,1.336c0.686,0.891,1.029,2.243,1.029,4.058V63.989z
		 M1596.453,60.101c-0.447,0.575-0.685,1.521-0.709,2.834h5.183c-0.026-1.323-0.253-2.269-0.676-2.838
		c-0.427-0.574-1.051-0.859-1.873-0.859C1597.54,59.238,1596.899,59.526,1596.453,60.101z"/>
	<path fill="#FFFFFF" d="M1604.604,58.282h1.284l0.127,1.39h0.095c0.345-0.482,0.786-0.849,1.326-1.108
		c0.54-0.257,1.108-0.389,1.709-0.389c0.281,0,0.561,0.025,0.834,0.077v1.43c-0.273-0.047-0.573-0.07-0.901-0.07
		c-0.543,0-1.087,0.126-1.632,0.378c-0.547,0.252-0.981,0.617-1.307,1.09v7.596h-1.535V58.282z"/>
	<path fill="#FFFFFF" d="M1611.54,68.675V58.282h1.535v10.394H1611.54z M1611.599,56.671l2.069-3.478h1.656l-2.308,3.478H1611.599z"
		/>
	<path fill="#FFFFFF" d="M1621.303,58.474c0.579,0.234,1.017,0.626,1.312,1.176s0.439,1.289,0.439,2.213v6.813h-1.281l-0.117-1.16
		h-0.104c-0.332,0.42-0.76,0.749-1.289,0.982c-0.526,0.234-1.098,0.349-1.709,0.349c-0.646,0-1.203-0.115-1.675-0.34
		c-0.476-0.227-0.837-0.554-1.088-0.982c-0.253-0.428-0.379-0.931-0.379-1.514c0-0.919,0.3-1.63,0.9-2.13
		c0.599-0.502,1.556-0.819,2.865-0.946l2.374-0.256v-0.895c0-0.617-0.097-1.103-0.293-1.454c-0.194-0.351-0.483-0.599-0.87-0.744
		c-0.388-0.143-0.893-0.216-1.521-0.216c-0.425,0-0.883,0.037-1.372,0.117c-0.488,0.075-0.967,0.194-1.434,0.353v-1.265
		c0.429-0.145,0.915-0.259,1.457-0.338c0.542-0.08,1.06-0.12,1.553-0.12C1619.977,58.118,1620.721,58.234,1621.303,58.474z
		 M1620.353,67.352c0.455-0.203,0.854-0.524,1.198-0.959v-2.68l-2.27,0.248c-0.812,0.084-1.401,0.281-1.768,0.594
		c-0.368,0.313-0.552,0.751-0.552,1.314c0,0.584,0.165,1.031,0.498,1.335c0.332,0.303,0.825,0.457,1.476,0.457
		C1619.427,67.66,1619.899,67.558,1620.353,67.352z"/>
	<path fill="#FFFFFF" d="M1631.956,68.33c-0.613-0.352-1.098-0.912-1.452-1.682c-0.354-0.77-0.532-1.755-0.532-2.955
		c0-1.859,0.442-3.253,1.327-4.181c0.884-0.931,2.193-1.395,3.924-1.395c0.499,0,1.06,0.047,1.686,0.144v-5.068h1.532v15.482h-1.311
		l-0.105-1.132h-0.096c-0.328,0.403-0.735,0.723-1.229,0.958c-0.492,0.237-1.036,0.356-1.638,0.356
		C1633.271,68.858,1632.567,68.681,1631.956,68.33z M1635.806,67.214c0.441-0.214,0.81-0.537,1.103-0.964v-6.695
		c-0.242-0.051-0.519-0.093-0.825-0.129c-0.306-0.035-0.603-0.054-0.891-0.054c-1.231,0-2.148,0.333-2.753,0.992
		c-0.604,0.661-0.905,1.724-0.905,3.185c0,1.45,0.251,2.477,0.752,3.081c0.502,0.603,1.211,0.905,2.132,0.905
		C1634.901,67.534,1635.365,67.426,1635.806,67.214z"/>
	<path fill="#FFFFFF" d="M1648.996,63.989h-6.656c0.023,0.875,0.17,1.579,0.436,2.109c0.264,0.528,0.651,0.912,1.164,1.149
		c0.51,0.236,1.162,0.353,1.953,0.353c0.752,0,1.616-0.14,2.586-0.422v1.256c-0.944,0.281-1.868,0.424-2.769,0.424
		c-1.653,0-2.888-0.431-3.702-1.286c-0.814-0.856-1.221-2.222-1.221-4.098c0-1.783,0.369-3.12,1.105-4.016
		c0.74-0.893,1.771-1.34,3.1-1.34c1.295,0,2.287,0.445,2.975,1.336c0.686,0.891,1.029,2.243,1.029,4.058V63.989z M1643.049,60.101
		c-0.447,0.575-0.686,1.521-0.709,2.834h5.183c-0.025-1.323-0.253-2.269-0.676-2.838c-0.426-0.574-1.05-0.859-1.873-0.859
		C1644.136,59.238,1643.495,59.526,1643.049,60.101z"/>
	<path fill="#FFFFFF" d="M1657.094,68.708c-0.609-0.099-1.184-0.241-1.727-0.425V66.94c0.575,0.199,1.164,0.345,1.768,0.44
		c0.604,0.097,1.186,0.145,1.75,0.145c2.303,0,3.456-0.866,3.456-2.596c0-0.48-0.094-0.88-0.283-1.203
		c-0.187-0.322-0.484-0.594-0.89-0.814c-0.406-0.22-0.958-0.421-1.653-0.599l-0.767-0.201c-1.213-0.314-2.115-0.782-2.711-1.404
		c-0.593-0.622-0.891-1.443-0.891-2.458c0-0.816,0.189-1.522,0.571-2.111c0.378-0.59,0.944-1.043,1.694-1.357
		c0.751-0.313,1.678-0.468,2.784-0.468c0.55,0,1.092,0.038,1.628,0.108c0.536,0.075,1.024,0.183,1.466,0.323v1.342
		c-0.959-0.294-1.973-0.442-3.047-0.442c-1.192,0-2.08,0.215-2.656,0.648c-0.581,0.43-0.868,1.052-0.868,1.861
		c0,0.468,0.084,0.86,0.252,1.178c0.172,0.318,0.441,0.59,0.822,0.809c0.376,0.221,0.891,0.417,1.541,0.59l0.767,0.191
		c1.313,0.333,2.28,0.809,2.894,1.436c0.612,0.627,0.919,1.45,0.919,2.472c0,0.85-0.199,1.574-0.594,2.175
		c-0.396,0.601-0.971,1.06-1.724,1.373c-0.757,0.318-1.666,0.477-2.732,0.477C1658.29,68.858,1657.697,68.807,1657.094,68.708z"/>
	<path fill="#FFFFFF" d="M1666.687,67.539c-0.777-0.88-1.165-2.226-1.165-4.047c0-1.819,0.386-3.17,1.16-4.053
		c0.771-0.882,1.857-1.322,3.256-1.322c1.405,0,2.495,0.438,3.267,1.313c0.771,0.875,1.161,2.225,1.161,4.053
		c0,1.813-0.392,3.163-1.171,4.046c-0.778,0.884-1.862,1.328-3.257,1.328C1668.546,68.858,1667.46,68.418,1666.687,67.539z
		 M1672.065,66.668c0.484-0.631,0.728-1.684,0.728-3.156c0-1.502-0.243-2.569-0.728-3.196c-0.485-0.628-1.194-0.945-2.128-0.945
		c-0.926,0-1.633,0.313-2.122,0.941c-0.488,0.626-0.731,1.674-0.731,3.152c0,1.492,0.24,2.559,0.728,3.194
		c0.484,0.634,1.195,0.952,2.126,0.952C1670.871,67.611,1671.58,67.296,1672.065,66.668z"/>
	<path fill="#FFFFFF" d="M1679.503,54.846c-0.386,0.367-0.578,0.97-0.578,1.806v1.629h3.266v1.264h-3.266v9.13h-1.524v-9.13h-1.963
		v-1.264h1.963v-1.553c0-1.226,0.32-2.154,0.959-2.783c0.639-0.629,1.581-0.944,2.825-0.944c0.479,0,0.949,0.039,1.408,0.117v1.29
		c-0.428-0.075-0.85-0.111-1.264-0.111C1680.499,54.297,1679.892,54.479,1679.503,54.846z"/>
	<path fill="#FFFFFF" d="M1689.155,67.37v1.296c-0.543,0.126-1.076,0.192-1.601,0.192c-2.24,0-3.36-1.15-3.36-3.45v-5.863h-1.965
		v-1.264h1.965l0.248-3.784h1.284v3.784h3.267v1.264h-3.267v5.622c0,0.852,0.173,1.455,0.521,1.815
		c0.35,0.362,0.896,0.542,1.637,0.542C1688.245,67.525,1688.67,67.474,1689.155,67.37z"/>
	<path fill="#FFFFFF" d="M1703.487,58.282h1.446l-3.027,10.394h-1.81l-2.674-8.883l-2.692,8.883h-1.801l-3.045-10.394h1.504
		l2.519,8.803l2.633-8.803h1.805l2.622,8.754L1703.487,58.282z"/>
	<path fill="#FFFFFF" d="M1712.281,58.474c0.58,0.234,1.018,0.626,1.312,1.176c0.295,0.55,0.439,1.289,0.439,2.213v6.813h-1.281
		l-0.116-1.16h-0.105c-0.332,0.42-0.762,0.749-1.289,0.982c-0.525,0.234-1.097,0.349-1.71,0.349c-0.646,0-1.201-0.115-1.675-0.34
		c-0.475-0.227-0.838-0.554-1.088-0.982c-0.252-0.428-0.378-0.931-0.378-1.514c0-0.919,0.3-1.63,0.9-2.13
		c0.599-0.502,1.556-0.819,2.864-0.946l2.375-0.256v-0.895c0-0.617-0.096-1.103-0.293-1.454c-0.194-0.351-0.484-0.599-0.87-0.744
		c-0.389-0.143-0.894-0.216-1.52-0.216c-0.427,0-0.884,0.037-1.374,0.117c-0.489,0.075-0.965,0.194-1.433,0.353v-1.265
		c0.428-0.145,0.914-0.259,1.457-0.338c0.543-0.08,1.059-0.12,1.552-0.12C1710.954,58.118,1711.698,58.234,1712.281,58.474z
		 M1711.332,67.352c0.453-0.203,0.853-0.524,1.197-0.959v-2.68l-2.27,0.248c-0.811,0.084-1.4,0.281-1.768,0.594
		c-0.367,0.313-0.553,0.751-0.553,1.314c0,0.584,0.167,1.031,0.499,1.335c0.331,0.303,0.825,0.457,1.476,0.457
		C1710.405,67.66,1710.877,67.558,1711.332,67.352z"/>
	<path fill="#FFFFFF" d="M1716.811,58.282h1.284l0.126,1.39h0.097c0.344-0.482,0.785-0.849,1.326-1.108
		c0.541-0.257,1.108-0.389,1.709-0.389c0.281,0,0.56,0.025,0.833,0.077v1.43c-0.273-0.047-0.573-0.07-0.9-0.07
		c-0.543,0-1.087,0.126-1.633,0.378c-0.547,0.252-0.981,0.617-1.307,1.09v7.596h-1.535V58.282z"/>
	<path fill="#FFFFFF" d="M1731.409,63.989h-6.656c0.024,0.875,0.171,1.579,0.436,2.109c0.265,0.528,0.652,0.912,1.165,1.149
		c0.51,0.236,1.162,0.353,1.952,0.353c0.753,0,1.616-0.14,2.587-0.422v1.256c-0.945,0.281-1.869,0.424-2.77,0.424
		c-1.652,0-2.888-0.431-3.701-1.286c-0.814-0.856-1.221-2.222-1.221-4.098c0-1.783,0.369-3.12,1.104-4.016
		c0.74-0.893,1.771-1.34,3.101-1.34c1.296,0,2.286,0.445,2.975,1.336c0.685,0.891,1.028,2.243,1.028,4.058V63.989z M1725.462,60.101
		c-0.446,0.575-0.685,1.521-0.709,2.834h5.184c-0.026-1.323-0.253-2.269-0.677-2.838c-0.425-0.574-1.049-0.859-1.872-0.859
		C1726.551,59.238,1725.908,59.526,1725.462,60.101z"/>
</g>
</svg>
