<?xml version="1.0" encoding="utf-8"?>
<!-- Generator: Adobe Illustrator 15.0.0, SVG Export Plug-In . SVG Version: 6.00 Build 0)  -->
<!DOCTYPE svg PUBLIC "-//W3C//DTD SVG 1.1//EN" "http://www.w3.org/Graphics/SVG/1.1/DTD/svg11.dtd">
<svg version="1.1" id="Layer_1" xmlns="http://www.w3.org/2000/svg" xmlns:xlink="http://www.w3.org/1999/xlink" x="0px" y="0px"
	 width="1920px" height="367.496px" viewBox="0 113.892 1920 367.496" enable-background="new 0 113.892 1920 367.496"
	 xml:space="preserve">
<title>logo_argentina_unida</title>
<g>
	<polygon fill="#3B4449" points="117.302,125.739 145.448,125.739 145.448,254.479 123.681,254.479 123.681,157.257 88.362,236.179 
		68.917,236.179 33.62,159.064 33.62,254.479 11.83,254.479 11.83,125.739 39.908,125.739 79.046,212.583 	"/>
	<path fill="#3B4449" d="M170.468,140.164c-2.38-2.146-3.626-5.212-3.626-9.201c0-3.978,1.235-7.03,3.626-9.213
		c2.458-2.135,6.027-3.2,10.878-3.2c4.759,0,8.465,1.076,10.799,3.2c2.39,2.183,3.637,5.235,3.637,9.213
		c0,3.989-1.258,7.055-3.637,9.201c-2.323,2.136-6.04,3.18-10.799,3.18C176.496,143.344,172.916,142.3,170.468,140.164
		 M169.789,159.574h22.968v94.905h-22.968V159.574z"/>
	<path fill="#3B4449" d="M215.329,159.574h18.889l1.586,10.085h1.212c3.626-3.772,7.84-6.635,12.736-8.572
		c4.952-2,10.198-2.939,15.762-2.939c9.767,0,17.496,2.867,23.184,8.623c5.688,5.711,8.521,14.923,8.521,27.371v60.328H274.42
		v-59.049c0-6.276-1.315-10.805-3.978-13.528c-2.685-2.646-6.538-4.074-11.648-4.074c-3.886,0-7.637,0.788-11.342,2.448
		c-3.683,1.563-6.822,3.921-9.326,7.218v66.974h-22.798L215.329,159.574L215.329,159.574z"/>
	<path fill="#3B4449" d="M319.747,140.164c-2.391-2.146-3.648-5.212-3.648-9.201c0-3.978,1.269-7.03,3.648-9.213
		c2.379-2.135,6.073-3.2,10.81-3.2c4.827,0,8.464,1.076,10.867,3.2c2.368,2.183,3.569,5.235,3.569,9.213
		c0,3.989-1.201,7.055-3.569,9.201c-2.391,2.136-6.04,3.18-10.867,3.18C325.842,143.344,322.125,142.3,319.747,140.164
		 M319.113,159.574h22.797v94.905h-22.797V159.574z"/>
	<path fill="#3B4449" d="M361.695,252.264v-17.061c9.201,2.799,18.833,4.198,28.737,4.198c6.752,0,11.648-1.031,14.775-3.037
		c3.083-1.994,4.601-4.883,4.601-8.735c0-3.042-0.726-5.434-2.446-7.044c-1.529-1.625-4.374-2.786-8.238-3.652l-14.561-2.709
		c-8.771-1.729-15.139-4.787-19.037-9.14c-4.112-4.435-6.085-10.236-6.085-17.579c0-5.979,1.586-11.14,4.635-15.559
		c3.149-4.34,7.818-7.729,14.243-10.153c6.244-2.452,14.107-3.637,23.422-3.637c8.771,0,16.827,0.94,24.271,2.94v17.029
		c-7.444-2.169-15.332-3.099-23.626-3.099c-14.333,0-21.518,3.887-21.518,11.802c0,2.787,0.805,5.003,2.391,6.708
		c1.62,1.626,4.329,2.866,8.135,3.666l14.437,2.656c8.702,1.762,15.127,4.748,19.24,8.935c4.079,4.178,6.062,10.177,6.062,17.973
		c0,6.086-1.528,11.326-4.713,15.785c-3.127,4.373-7.683,7.817-13.711,10.176c-6.073,2.351-13.461,3.547-22.005,3.547
		C379.904,256.276,370.228,255.011,361.695,252.264"/>
	<path fill="#3B4449" d="M502.962,236.054v18.355c-5.518,1.242-10.979,1.865-16.43,1.865c-22.526,0-33.778-11.36-33.778-33.972
		v-44.498h-16.385v-18.21h16.385l4.034-33.857h18.764v33.857h26.504v18.21h-26.504v40.771c0,4.634,0.613,8.333,1.77,11.093
		c1.189,2.766,3.003,4.691,5.45,5.848c2.436,1.258,5.677,1.791,9.666,1.791C495.155,237.318,498.748,236.922,502.962,236.054"/>
	<path fill="#3B4449" d="M592.785,213.88h-58.685c0.294,6.137,1.428,11.061,3.479,14.681c2.062,3.608,5.178,6.266,9.439,7.853
		c4.271,1.66,9.847,2.413,16.961,2.413c6.936,0,14.9-1.076,23.841-3.257v17.33c-9.11,2.276-18.106,3.389-26.945,3.389
		c-11.332,0-20.646-1.796-27.932-5.116c-7.274-3.41-12.726-8.747-16.328-15.942c-3.569-7.252-5.382-16.641-5.382-28.146
		c0-10.663,1.688-19.563,4.996-26.896c3.286-7.37,8.068-12.811,14.323-16.526c6.312-3.688,13.824-5.559,22.753-5.559
		c12.976,0,22.799,4.205,29.439,12.565c6.775,8.272,10.072,20.691,10.072,37.101L592.785,213.88L592.785,213.88z M539.076,179.267
		c-3.186,4.164-4.873,11.14-5.009,20.975h37.461c-0.182-9.835-1.813-16.798-4.828-20.975c-3.015-4.214-7.558-6.266-13.597-6.266
		C546.973,173.003,542.305,175.041,539.076,179.267"/>
	<path fill="#3B4449" d="M609.861,159.574h18.753l1.746,12.363h1.257c2.8-4.438,6.392-7.85,10.914-10.063
		c4.565-2.3,9.607-3.443,15.023-3.443c2.492,0,5.064,0.243,7.547,0.635v20.725c-2.152-0.396-5.166-0.577-8.804-0.577
		c-4.567,0-8.998,0.912-13.428,2.668c-4.329,1.938-7.786,4.521-10.244,8.018v64.55h-22.788v-94.872h0.023V159.574z"/>
	<path fill="#3B4449" d="M679.29,140.164c-2.494-2.146-3.695-5.212-3.695-9.201c0-3.978,1.201-7.03,3.695-9.213
		c2.333-2.135,5.97-3.2,10.753-3.2c4.827,0,8.453,1.076,10.855,3.2c2.392,2.183,3.593,5.235,3.593,9.213
		c0,3.989-1.212,7.055-3.593,9.201c-2.369,2.136-6.028,3.18-10.855,3.18C685.26,143.344,681.645,142.3,679.29,140.164
		 M678.553,159.574h22.854v94.905h-22.854V159.574z"/>
	<path fill="#3B4449" d="M731.277,244.06c-7.797-8.192-11.648-20.448-11.648-36.793c0-16.407,3.807-28.696,11.445-36.877
		c7.706-8.192,18.57-12.323,32.712-12.323c14.04,0,24.907,4.118,32.645,12.323c7.661,8.181,11.537,20.47,11.537,36.813
		c0,10.884-1.826,20.063-5.35,27.314c-3.581,7.349-8.646,12.742-15.297,16.386c-6.571,3.528-14.493,5.359-23.524,5.359
		C749.927,256.276,739.061,252.219,731.277,244.06 M779.672,231.562c3.57-4.806,5.271-12.8,5.271-24.158
		c0-11.581-1.699-19.763-5.271-24.517c-3.637-4.771-8.939-7.185-15.875-7.185c-7.046,0-12.327,2.414-15.931,7.14
		c-3.523,4.741-5.351,12.833-5.351,24.228c0,7.817,0.862,14.073,2.494,18.668c1.678,4.617,3.988,7.938,7.116,9.942
		c3.128,2.022,6.979,2.998,11.66,2.998C770.732,238.689,776.013,236.321,779.672,231.562"/>
	<path fill="#3B4449" d="M883.729,251.335c-5.733-3.264-10.366-8.425-13.778-15.467c-3.4-6.997-5.056-15.978-5.056-26.804
		c0-16.754,4.264-29.406,12.84-38.046c8.533-8.669,21.043-12.962,37.475-12.962c3.873,0,8.066,0.334,12.666,0.962v-45.126h22.811
		v140.587h-19.272l-1.371-9.909h-1.19c-2.899,3.599-6.504,6.402-10.811,8.504c-4.327,2.103-9.213,3.18-14.729,3.18
		C896.046,256.23,889.506,254.479,883.729,251.335 M919.83,235.217c3.173-1.33,5.915-3.41,8.069-6.192v-52.011
		c-3.921-0.845-8.113-1.298-12.669-1.298c-9.281,0-16.113,2.471-20.591,7.429c-4.497,4.939-6.82,13.029-6.82,24.051
		c0,11.093,1.938,18.81,5.745,23.394c3.762,4.562,9.087,6.854,16.103,6.854C913.178,237.42,916.59,236.729,919.83,235.217"/>
	<path fill="#3B4449" d="M1050.447,213.88h-58.799c0.28,6.137,1.494,11.061,3.547,14.681c2.037,3.608,5.153,6.266,9.371,7.853
		c4.215,1.66,9.901,2.413,16.95,2.413c7.005,0,14.957-1.076,23.83-3.257v17.33c-9.03,2.276-18.026,3.389-26.934,3.389
		c-11.332,0-20.603-1.796-27.877-5.116c-7.285-3.41-12.806-8.747-16.316-15.942c-3.582-7.252-5.395-16.641-5.395-28.146
		c0-10.663,1.643-19.563,4.94-26.896c3.285-7.37,8.113-12.811,14.367-16.526c6.324-3.688,13.826-5.559,22.777-5.559
		c12.893,0,22.729,4.205,29.461,12.565c6.754,8.272,10.106,20.691,10.106,37.101L1050.447,213.88L1050.447,213.88z M996.588,179.267
		c-3.184,4.164-4.77,11.14-5.008,20.975h37.473c-0.19-9.835-1.768-16.798-4.838-20.975c-3.037-4.214-7.559-6.266-13.666-6.266
		C1004.555,173.003,999.83,175.041,996.588,179.267"/>
	<path fill="#3B4449" d="M1112.078,253.725V128.328c5.801-1.195,12.123-2.158,18.832-2.867c6.754-0.729,13.258-1.087,19.568-1.087
		c22.741,0,39.897,5.371,51.332,16.188c11.442,10.775,17.166,27.313,17.166,49.567c0,15.259-2.662,27.729-8.066,37.411
		c-5.418,9.58-13.473,16.73-24.34,21.314c-10.867,4.595-24.498,6.911-40.951,6.911
		C1134.547,255.765,1123.352,255.08,1112.078,253.725 M1175.998,231.981c6.379-3.252,11.148-8.203,14.379-15.048
		c3.195-6.827,4.779-15.773,4.779-26.878c0-10.964-1.607-19.875-4.779-26.753c-3.217-6.92-8-11.882-14.313-15.155
		c-6.379-3.156-14.447-4.816-24.295-4.816c-4.884,0-10.39,0.487-16.406,1.484v91.075c4.43,0.521,9.824,0.811,16.022,0.811
		C1161.324,236.729,1169.527,235.126,1175.998,231.981"/>
	<path fill="#3B4449" d="M1315.316,213.88h-58.742c0.34,6.137,1.496,11.061,3.467,14.681c2.063,3.608,5.166,6.266,9.396,7.853
		c4.282,1.66,9.959,2.413,17.008,2.413c6.936,0,14.877-1.076,23.842-3.257v17.33c-9.11,2.276-18.096,3.389-27.014,3.389
		c-11.267,0-20.593-1.796-27.877-5.116c-7.273-3.41-12.668-8.747-16.248-15.942c-3.58-7.252-5.416-16.641-5.416-28.146
		c0-10.663,1.676-19.563,4.963-26.896c3.285-7.37,8.067-12.811,14.334-16.526c6.299-3.688,13.856-5.559,22.674-5.559
		c12.975,0,22.854,4.205,29.576,12.565c6.694,8.272,10.049,20.691,10.049,37.101v6.112L1315.316,213.88L1315.316,213.88z
		 M1261.594,179.267c-3.194,4.164-4.895,11.14-5.123,20.975h37.531c-0.104-9.835-1.813-16.798-4.783-20.975
		c-3.117-4.214-7.602-6.266-13.643-6.266C1269.436,173.003,1264.711,175.041,1261.594,179.267"/>
	<path fill="#3B4449" d="M1329.422,252.264v-17.061c9.156,2.799,18.822,4.198,28.725,4.198c6.709,0,11.662-1.031,14.744-3.037
		c3.14-1.994,4.656-4.883,4.656-8.735c0-3.042-0.736-5.434-2.391-7.044c-1.596-1.625-4.385-2.786-8.42-3.652l-14.457-2.709
		c-8.703-1.729-15.142-4.787-19.162-9.14c-3.979-4.435-5.974-10.236-5.974-17.579c0-5.979,1.556-11.14,4.671-15.559
		c3.127-4.34,7.84-7.729,14.163-10.153c6.302-2.452,14.142-3.637,23.478-3.637c8.771,0,16.84,0.94,24.272,2.94v17.029
		c-7.489-2.169-15.389-3.099-23.639-3.099c-14.332,0-21.506,3.887-21.506,11.802c0,2.787,0.793,5.003,2.391,6.708
		c1.599,1.626,4.33,2.866,8.104,3.666l14.457,2.656c8.703,1.762,15.069,4.748,19.162,8.935c4.09,4.188,6.151,10.177,6.151,17.973
		c0,6.086-1.539,11.326-4.713,15.785c-3.024,4.373-7.717,7.817-13.781,10.176c-6.026,2.351-13.336,3.547-21.991,3.547
		C1347.564,256.276,1337.955,255.011,1329.422,252.264"/>
	<path fill="#3B4449" d="M1470.17,161.721c5.914,2.447,10.402,6.396,13.303,11.868c3.025,5.549,4.431,13.055,4.431,22.499v58.379
		h-18.935l-1.528-9.773h-1.214c-2.834,3.751-6.526,6.618-11.036,8.601c-4.488,1.895-9.429,2.947-14.892,2.947
		c-6.209,0-11.604-1.185-16.17-3.365c-4.484-2.182-7.941-5.314-10.332-9.349c-2.436-4.039-3.57-8.754-3.57-14.249
		c0-8.844,2.947-15.643,9.031-20.482c5.974-4.78,15.515-7.67,28.601-8.746l17.803-1.639v-3.784c0-4.788-0.793-8.562-2.334-11.358
		c-1.543-2.737-3.933-4.721-7.207-5.836c-3.31-1.196-7.75-1.751-13.215-1.751c-3.92,0-8.134,0.312-12.621,0.997
		c-4.603,0.686-8.931,1.627-13.078,3.042v-17.489c4.272-1.332,9.103-2.362,14.404-3.048c5.336-0.742,10.389-1.037,15.127-1.037
		C1456.344,158.158,1464.197,159.353,1470.17,161.721 M1457.162,238.06c3.127-1.252,5.969-3.235,8.508-6.045v-20.237l-15.646,1.45
		c-6.007,0.543-10.349,1.993-13.056,4.294c-2.799,2.238-4.113,5.559-4.113,9.587c0,4.209,1.214,7.398,3.638,9.62
		c2.446,2.176,6.073,3.303,10.854,3.303C1450.725,240.044,1454.021,239.358,1457.162,238.06"/>
	<path fill="#3B4449" d="M1509.727,159.574h18.847l1.698,12.363h1.201c2.785-4.438,6.48-7.85,11.025-10.063
		c4.555-2.3,9.551-3.443,15.002-3.443c2.504,0,5.02,0.243,7.557,0.635v20.725c-2.199-0.396-5.213-0.577-8.86-0.577
		c-4.496,0-8.929,0.912-13.349,2.668c-4.373,1.938-7.797,4.521-10.311,8.018v64.55h-22.811V159.574L1509.727,159.574z"/>
	<path fill="#3B4449" d="M1577.352,159.574h18.767l1.756,12.363h1.201c2.832-4.438,6.479-7.85,11.014-10.063
		c4.566-2.3,9.563-3.443,15.027-3.443c2.502,0,5.008,0.243,7.557,0.635v20.725c-2.276-0.396-5.225-0.577-8.86-0.577
		c-4.566,0-8.939,0.912-13.371,2.668c-4.373,1.938-7.785,4.521-10.301,8.018v64.55h-22.787v-94.874H1577.352z"/>
	<path fill="#3B4449" d="M1650.711,244.06c-7.809-8.192-11.729-20.448-11.729-36.793c0-16.407,3.75-28.696,11.479-36.877
		c7.729-8.192,18.619-12.323,32.703-12.323s24.963,4.118,32.623,12.323c7.75,8.181,11.557,20.47,11.557,36.813
		c0,10.884-1.699,20.063-5.356,27.314c-3.57,7.349-8.636,12.742-15.287,16.386c-6.539,3.528-14.381,5.359-23.522,5.359
		C1669.305,256.276,1658.508,252.219,1650.711,244.06 M1699.039,231.562c3.582-4.806,5.406-12.8,5.406-24.158
		c0-11.581-1.814-19.763-5.406-24.517c-3.582-4.771-8.84-7.185-15.863-7.185c-7.049,0-12.33,2.414-15.934,7.14
		c-3.535,4.741-5.336,12.833-5.336,24.228c0,7.817,0.85,14.073,2.494,18.668c1.688,4.617,4.043,7.938,7.172,9.942
		c3.08,2.022,6.934,2.998,11.592,2.998C1690.225,238.689,1695.48,236.321,1699.039,231.562"/>
	<rect x="1745.338" y="113.892" fill="#3B4449" width="22.732" height="140.587"/>
	<rect x="1790.824" y="113.892" fill="#3B4449" width="22.797" height="140.587"/>
	<path fill="#3B4449" d="M1843.514,244.06c-7.772-8.192-11.717-20.448-11.717-36.793c0-16.407,3.818-28.696,11.502-36.877
		c7.727-8.192,18.617-12.323,32.668-12.323c14.117,0,25.043,4.118,32.703,12.323c7.67,8.181,11.533,20.47,11.533,36.813
		c0,10.884-1.813,20.063-5.404,27.314c-3.547,7.349-8.646,12.742-15.242,16.386c-6.629,3.528-14.479,5.359-23.58,5.359
		C1862.188,256.276,1851.332,252.219,1843.514,244.06 M1891.875,231.562c3.625-4.806,5.35-12.8,5.35-24.158
		c0-11.581-1.713-19.763-5.35-24.517c-3.59-4.771-8.814-7.185-15.875-7.185c-6.992,0-12.338,2.414-15.865,7.14
		c-3.592,4.741-5.346,12.833-5.346,24.228c0,7.817,0.781,14.073,2.502,18.668c1.654,4.617,3.969,7.938,7.049,9.942
		c3.184,2.022,7.027,2.998,11.648,2.998C1883.061,238.689,1888.295,236.321,1891.875,231.562"/>
	<polygon fill="#3B4449" points="41.393,443.055 41.393,333.685 0,333.685 0,314.338 106.039,314.338 106.039,333.685 
		64.645,333.685 64.645,443.055 	"/>
	<path fill="#3B4449" d="M183.374,402.432H124.69c0.227,6.188,1.473,11.06,3.467,14.686c1.994,3.604,5.178,6.302,9.394,7.909
		c4.204,1.564,9.846,2.425,16.94,2.425c7.003,0,14.957-1.087,23.83-3.297v17.279c-9.054,2.289-18.074,3.398-26.889,3.398
		c-11.366,0-20.635-1.711-27.91-5.121c-7.354-3.422-12.748-8.735-16.328-15.954c-3.581-7.285-5.405-16.611-5.405-28.136
		c0-10.617,1.654-19.593,4.941-26.957c3.309-7.274,8.136-12.775,14.346-16.432c6.3-3.653,13.857-5.58,22.742-5.58
		c12.962,0,22.799,4.204,29.519,12.563c6.718,8.315,10.051,20.645,10.051,37.041L183.374,402.432L183.374,402.432z M129.63,367.849
		c-3.173,4.136-4.873,11.082-5.065,20.964h37.518c-0.227-9.882-1.813-16.816-4.827-20.964c-3.083-4.193-7.615-6.277-13.598-6.277
		C137.482,361.572,132.825,363.635,129.63,367.849"/>
	<path fill="#3B4449" d="M200.383,348.161h18.742l1.756,12.347h1.212c2.832-4.441,6.482-7.819,11.037-10.092
		c4.543-2.255,9.542-3.388,15.025-3.388c2.481,0,4.997,0.183,7.547,0.602v20.719c-2.267-0.43-5.235-0.566-8.861-0.566
		c-4.578,0-9.043,0.851-13.349,2.743c-4.453,1.857-7.796,4.486-10.311,7.931v64.591h-22.799L200.383,348.161L200.383,348.161z"/>
	<path fill="#3B4449" d="M267.997,348.161h18.821l1.688,12.347h1.236c2.73-4.441,6.447-7.819,11.037-10.092
		c4.498-2.255,9.541-3.388,14.957-3.388c2.493,0,5.02,0.183,7.558,0.602v20.719c-2.277-0.43-5.157-0.566-8.873-0.566
		c-4.555,0-8.975,0.851-13.348,2.743c-4.374,1.857-7.784,4.486-10.301,7.931v64.591h-22.786L267.997,348.161L267.997,348.161z"/>
	<path fill="#3B4449" d="M337.367,328.648c-2.323-2.078-3.58-5.121-3.58-9.098c0-4.014,1.257-7.044,3.58-9.247
		c2.391-2.125,6.028-3.265,10.924-3.265c4.77,0,8.362,1.15,10.742,3.265c2.436,2.191,3.637,5.233,3.637,9.247
		c0,3.977-1.201,7.02-3.637,9.098c-2.402,2.159-5.972,3.235-10.742,3.235C343.384,331.885,339.758,330.798,337.367,328.648
		 M336.744,348.161h22.912v94.896h-22.912V348.161z"/>
	<path fill="#3B4449" d="M438.873,424.632v18.254c-5.507,1.314-11.104,1.927-16.486,1.927c-22.504,0-33.768-11.285-33.768-33.971
		v-44.511h-16.385v-18.17h16.385l3.965-33.823h18.81v33.823h26.516v18.17h-26.516v40.815c0,4.646,0.59,8.328,1.757,11.104
		c1.258,2.697,3.094,4.646,5.474,5.849c2.447,1.167,5.62,1.745,9.655,1.745C431.077,425.866,434.6,425.459,438.873,424.632"/>
	<path fill="#3B4449" d="M458.781,432.62c-7.796-8.183-11.671-20.511-11.671-36.805c0-16.431,3.807-28.681,11.479-36.895
		c7.739-8.159,18.617-12.289,32.713-12.289c14.097,0,24.951,4.118,32.681,12.289c7.626,8.214,11.489,20.464,11.489,36.85
		c0,10.9-1.768,19.965-5.292,27.308c-3.637,7.32-8.714,12.781-15.365,16.363c-6.584,3.58-14.426,5.37-23.513,5.37
		C477.467,444.811,466.555,440.756,458.781,432.62 M507.212,420.133c3.534-4.76,5.234-12.815,5.234-24.203
		c0-11.535-1.7-19.762-5.234-24.498c-3.626-4.805-8.93-7.186-15.91-7.186c-7.014,0-12.351,2.381-15.932,7.161
		c-3.536,4.715-5.292,12.781-5.292,24.204c0,7.809,0.85,14.063,2.459,18.65c1.642,4.715,3.965,8.035,7.092,9.949
		c3.128,2.04,7.003,3.083,11.672,3.083C498.294,427.295,503.586,424.845,507.212,420.133"/>
	<path fill="#3B4449" d="M553.625,348.161h18.765l1.746,12.347h1.246c2.788-4.441,6.438-7.819,10.97-10.092
		c4.508-2.255,9.563-3.388,15.024-3.388c2.494,0,5.021,0.183,7.547,0.602v20.719c-2.266-0.43-5.225-0.566-8.862-0.566
		c-4.485,0-8.984,0.851-13.313,2.743c-4.431,1.857-7.897,4.486-10.345,7.931v64.591h-22.799L553.625,348.161L553.625,348.161z"/>
	<path fill="#3B4449" d="M622.982,328.648c-2.379-2.078-3.567-5.121-3.567-9.098c0-4.014,1.201-7.044,3.567-9.247
		c2.402-2.125,6.041-3.265,10.822-3.265c4.827,0,8.42,1.15,10.912,3.265c2.322,2.191,3.57,5.233,3.57,9.247
		c0,3.977-1.237,7.02-3.57,9.098c-2.505,2.159-6.084,3.235-10.912,3.235C629.023,331.885,625.386,330.798,622.982,328.648
		 M622.316,348.161h22.909v94.896h-22.909V348.161z"/>
	<path fill="#3B4449" d="M722.846,350.274c5.974,2.426,10.393,6.362,13.349,11.842c2.946,5.554,4.442,13.055,4.442,22.492v58.438
		h-18.947l-1.528-9.759h-1.212c-2.878,3.729-6.526,6.585-11.025,8.488c-4.543,1.972-9.494,2.969-14.957,2.969
		c-6.209,0-11.535-1.11-16.101-3.264c-4.488-2.209-8.011-5.349-10.335-9.428c-2.389-3.979-3.637-8.805-3.637-14.143
		c0-8.905,3.024-15.637,9.054-20.51c6.018-4.804,15.58-7.772,28.657-8.816l17.732-1.598v-3.816c0-4.806-0.781-8.591-2.333-11.311
		c-1.519-2.765-3.965-4.713-7.229-5.892c-3.287-1.111-7.661-1.757-13.189-1.757c-3.92,0-8.069,0.328-12.555,1.02
		c-4.51,0.691-8.942,1.667-13.101,3.026V350.74c4.329-1.367,9.1-2.369,14.391-3.055c5.292-0.68,10.357-1.088,15.083-1.088
		C709.102,346.633,716.954,347.924,722.846,350.274 M709.872,426.672c3.208-1.28,5.915-3.354,8.464-6.108v-20.169l-15.58,1.382
		c-6.04,0.567-10.392,2.028-13.133,4.328c-2.798,2.211-4.157,5.52-4.157,9.586c0,4.193,1.257,7.366,3.751,9.576
		c2.458,2.221,6.096,3.297,10.878,3.297C703.401,428.552,706.699,427.905,709.872,426.672"/>
	<rect x="762.482" y="302.456" fill="#3B4449" width="22.765" height="140.601"/>
	<polygon fill="#3B4449" points="915.183,348.161 937.757,348.161 889.406,481.388 867.016,481.388 881.112,443.055 
		874.732,443.055 840.33,348.161 864.396,348.161 889.506,423.327 	"/>
	<polygon fill="#3B4449" points="994.197,443.055 994.197,314.338 1017.471,314.338 1017.471,366.852 1075.793,366.852 
		1075.793,314.338 1099.068,314.338 1099.068,443.055 1075.793,443.055 1075.793,387.407 1017.471,387.407 1017.471,443.055 	"/>
	<path fill="#3B4449" d="M1178.162,350.274c5.982,2.426,10.402,6.362,13.428,11.842c2.822,5.554,4.318,13.055,4.318,22.492v58.438
		h-18.892l-1.575-9.759h-1.214c-2.832,3.729-6.536,6.585-11.024,8.488c-4.431,1.972-9.438,2.969-14.89,2.969
		c-6.151,0-11.602-1.11-16.112-3.264c-4.543-2.244-8-5.349-10.379-9.428c-2.402-4.022-3.615-8.805-3.615-14.143
		c0-8.905,3.024-15.637,9.055-20.51c6.027-4.804,15.58-7.772,28.6-8.816l17.802-1.598v-3.816c0-4.806-0.781-8.591-2.377-11.311
		c-1.486-2.765-3.89-4.713-7.242-5.892c-3.219-1.111-7.615-1.757-13.066-1.757c-3.92,0-8.135,0.328-12.688,1.02
		c-4.5,0.691-8.826,1.667-13.053,3.026V350.74c4.305-1.367,9.131-2.369,14.434-3.055c5.27-0.68,10.336-1.088,15.072-1.088
		C1164.404,346.633,1172.201,347.924,1178.162,350.274 M1165.131,426.672c3.207-1.28,5.992-3.354,8.543-6.108v-20.169l-15.637,1.382
		c-5.914,0.567-10.357,2.028-13.076,4.328c-2.787,2.211-4.158,5.52-4.158,9.586c0,4.193,1.258,7.366,3.683,9.576
		c2.459,2.187,6.084,3.297,10.879,3.297C1158.785,428.552,1162.002,427.905,1165.131,426.672 M1148.371,335.171l19.162-32.715
		h24.395l-22.639,32.715H1148.371z"/>
	<path fill="#3B4449" d="M1234.127,443.622c-5.928-0.896-11.365-2.118-16.375-3.728V302.456h22.799v55.07h1.213
		c2.89-3.376,6.482-6.034,10.742-7.981c4.33-1.903,9.098-2.901,14.447-2.901c6.877,0,13.135,1.694,18.606,4.918
		c5.563,3.309,9.938,8.47,13.188,15.563c3.174,7.004,4.828,15.955,4.828,26.605c0,16.987-4.26,29.733-12.963,38.277
		c-8.646,8.499-21.552,12.827-38.775,12.827C1245.898,444.811,1239.973,444.382,1234.127,443.622 M1273.934,419.759
		c4.418-4.976,6.642-13.087,6.642-24.146c0-11.082-1.857-18.741-5.621-23.298c-3.808-4.464-9.146-6.774-16.158-6.774
		c-3.514,0-6.867,0.622-10.041,1.972c-3.238,1.201-5.979,3.127-8.203,5.757v52.327c3.988,1.134,8.433,1.7,13.201,1.7
		C1262.727,427.295,1269.492,424.744,1273.934,419.759"/>
	<path fill="#3B4449" d="M1321.75,328.648c-2.457-2.078-3.682-5.121-3.682-9.098c0-4.014,1.233-7.044,3.682-9.247
		c2.402-2.125,5.973-3.265,10.813-3.265c4.826,0,8.418,1.15,10.798,3.265c2.448,2.191,3.639,5.233,3.639,9.247
		c0,3.977-1.201,7.02-3.639,9.098c-2.38,2.159-5.972,3.235-10.798,3.235C1327.713,331.885,1324.131,330.798,1321.75,328.648
		 M1321.061,348.161h22.845v94.896h-22.845V348.161z"/>
	<path fill="#3B4449" d="M1423.076,424.632v18.254c-5.461,1.314-10.924,1.927-16.373,1.927c-22.584,0-33.779-11.285-33.779-33.971
		v-44.511h-16.361v-18.17h16.361l3.99-33.823h18.83v33.823h26.526v18.17h-26.526v40.815c0,4.646,0.545,8.328,1.803,11.104
		c1.145,2.697,2.957,4.646,5.404,5.849c2.447,1.167,5.688,1.745,9.666,1.745C1415.404,425.866,1418.861,425.459,1423.076,424.632"/>
	<path fill="#3B4449" d="M1491.947,350.274c5.973,2.426,10.436,6.362,13.406,11.842c2.899,5.554,4.33,13.055,4.33,22.492v58.438
		h-18.882l-1.541-9.759h-1.188c-2.857,3.729-6.539,6.585-11.039,8.488c-4.486,1.972-9.449,2.969-14.898,2.969
		c-6.198,0-11.594-1.11-16.147-3.264c-4.498-2.209-7.978-5.349-10.346-9.428c-2.459-3.979-3.593-8.805-3.593-14.143
		c0-8.905,2.97-15.637,8.986-20.51c6.062-4.804,15.58-7.772,28.656-8.816l17.743-1.598v-3.816c0-4.806-0.748-8.591-2.334-11.311
		c-1.538-2.765-3.874-4.713-7.161-5.892c-3.31-1.111-7.728-1.757-13.244-1.757c-3.877,0-8.092,0.328-12.592,1.02
		c-4.601,0.691-8.929,1.667-13.074,3.026V350.74c4.33-1.367,9.098-2.369,14.399-3.055c5.271-0.68,10.337-1.088,15.127-1.088
		C1478.236,346.633,1485.977,347.924,1491.947,350.274 M1478.963,426.672c3.205-1.28,5.982-3.354,8.475-6.108v-20.169l-15.592,1.382
		c-5.959,0.567-10.354,2.028-13.145,4.328c-2.719,2.211-4.033,5.52-4.033,9.586c0,4.193,1.201,7.366,3.625,9.576
		c2.461,2.221,6.086,3.297,10.879,3.297C1472.572,428.552,1475.801,427.905,1478.963,426.672"/>
	<path fill="#3B4449" d="M1588.094,424.632v18.254c-5.506,1.314-10.957,1.927-16.418,1.927c-22.471,0-33.723-11.285-33.723-33.971
		v-44.511h-16.385v-18.17h16.385l3.988-33.823h18.809v33.823h26.494v18.17h-26.494v40.815c0,4.646,0.568,8.328,1.758,11.104
		c1.201,2.697,2.959,4.646,5.406,5.849c2.49,1.167,5.688,1.745,9.654,1.745C1580.424,425.866,1583.936,425.459,1588.094,424.632"/>
</g>
</svg>
